Preview_RobotoExtremo-wght_900.00_wdth_125.00_opsz_24.00_GRAD_0.00_XTRA_468.00_XOPQ_96.00_YOPQ_79.00.ufo
<glyph name="exclam" format="2">
  <advance width="725"/>
  <unicode hex="0021"/>
  <outline>
    <contour>
      <point x="84.84615384615385" y="219.69230769230768" type="qcurve" smooth="yes"/>
      <point x="84.84615384615385" y="318.2307692307693"/>
      <point x="227.19615384615383" y="460.5384615384615"/>
      <point x="359.9484615384616" y="460.5384615384615" type="qcurve" smooth="yes"/>
      <point x="496.35461538461533" y="460.5384615384615"/>
      <point x="640.7430769230768" y="318.2307692307693"/>
      <point x="640.7430769230768" y="219.69230769230768" type="qcurve" smooth="yes"/>
      <point x="640.7430769230768" y="121.07692307692307"/>
      <point x="498.39307692307693" y="-21.23076923076923"/>
      <point x="362.8715384615385" y="-21.23076923076923" type="qcurve" smooth="yes"/>
      <point x="228.11923076923074" y="-21.23076923076923"/>
      <point x="84.84615384615385" y="121.15384615384613"/>
    </contour>
    <contour>
      <point x="141.4392307692308" y="524.5769230769231" type="line"/>
      <point x="126.9123076923077" y="1456.0" type="line"/>
      <point x="598.6769230769231" y="1456.0" type="line"/>
      <point x="584.3423076923076" y="524.5769230769231" type="line"/>
    </contour>
  </outline>
</glyph>
<glyph name="quotedbl" format="2">
  <advance width="1136"/>
  <unicode hex="0022"/>
  <outline>
    <contour>
      <point x="88.44692307692306" y="794.9615384615383" type="line"/>
      <point x="71.15384615384616" y="1240.6923076923078" type="line"/>
      <point x="71.15384615384616" y="1456.0" type="line"/>
      <point x="522.44" y="1456.0" type="line"/>
      <point x="522.44" y="1240.6923076923078" type="line"/>
      <point x="505.49307692307684" y="794.9615384615383" type="line"/>
    </contour>
    <contour>
      <point x="631.2715384615386" y="794.9615384615383" type="line"/>
      <point x="613.9784615384615" y="1240.6923076923078" type="line"/>
      <point x="613.9784615384615" y="1456.0" type="line"/>
      <point x="1065.533846153846" y="1456.0" type="line"/>
      <point x="1065.533846153846" y="1240.6923076923078" type="line"/>
      <point x="1048.51" y="794.9615384615383" type="line"/>
    </contour>
  </outline>
</glyph>
<glyph name="numbersign" format="2">
  <advance width="1703"/>
  <unicode hex="0023"/>
  <outline>
    <contour>
      <point x="107.23076923076921" y="-20.0" type="line"/>
      <point x="587.7884615384615" y="1452.923076923077" type="line"/>
      <point x="998.9269230769229" y="1452.923076923077" type="line"/>
      <point x="518.1769230769231" y="-20.0" type="line"/>
    </contour>
    <contour>
      <point x="726.7692307692307" y="-20.0" type="line"/>
      <point x="1207.3846153846155" y="1452.923076923077" type="line"/>
      <point x="1620.176923076923" y="1452.923076923077" type="line"/>
      <point x="1139.5615384615382" y="-20.0" type="line"/>
    </contour>
    <contour>
      <point x="-5.384615384615373" y="320.7307692307692" type="line"/>
      <point x="-5.384615384615373" y="621.6538461538462" type="line"/>
      <point x="1633.696153846154" y="621.6538461538462" type="line"/>
      <point x="1633.696153846154" y="320.7307692307692" type="line"/>
    </contour>
    <contour>
      <point x="93.05769230769232" y="811.269230769231" type="line"/>
      <point x="93.05769230769232" y="1112.1923076923076" type="line"/>
      <point x="1730.946153846154" y="1112.1923076923076" type="line"/>
      <point x="1730.946153846154" y="811.269230769231" type="line"/>
    </contour>
  </outline>
</glyph>
<glyph name="dollar" format="2">
  <advance width="1302"/>
  <unicode hex="0024"/>
  <outline>
    <contour>
      <point x="-35.03846153846152" y="401.7692307692309" type="qcurve" smooth="yes"/>
      <point x="-35.03846153846152" y="475.8846153846154" type="line"/>
      <point x="443.8461538461538" y="475.8846153846154" type="line"/>
      <point x="443.8461538461538" y="447.0769230769231" type="line" smooth="yes"/>
      <point x="443.11538461538464" y="383.5769230769231"/>
      <point x="551.9615384615385" y="315.73076923076917"/>
      <point x="649.5769230769231" y="315.73076923076917" type="qcurve" smooth="yes"/>
      <point x="739.3076923076922" y="315.73076923076917"/>
      <point x="839.5" y="370.1153846153846"/>
      <point x="839.5" y="405.34615384615375" type="qcurve" smooth="yes"/>
      <point x="839.5" y="452.99999999999994"/>
      <point x="745.8076923076923" y="502.34615384615387"/>
      <point x="516.4615384615383" y="554.6923076923077" type="qcurve" smooth="yes"/>
      <point x="236.6923076923077" y="624.769230769231"/>
      <point x="-18.26923076923076" y="826.1153846153846"/>
      <point x="-18.26923076923076" y="1013.7307692307693" type="qcurve" smooth="yes"/>
      <point x="-18.26923076923076" y="1221.5769230769229"/>
      <point x="335.3076923076923" y="1469.1538461538457"/>
      <point x="633.7692307692308" y="1469.1538461538457" type="qcurve" smooth="yes"/>
      <point x="928.7307692307693" y="1469.1538461538457"/>
      <point x="1294.769230769231" y="1248.153846153846"/>
      <point x="1294.769230769231" y="1067.5384615384614" type="qcurve" smooth="yes"/>
      <point x="1294.769230769231" y="1005.846153846154" type="line"/>
      <point x="822.3461538461538" y="1005.846153846154" type="line"/>
      <point x="822.3461538461538" y="1025.8846153846155" type="line" smooth="yes"/>
      <point x="822.3461538461538" y="1070.7307692307695"/>
      <point x="730.3461538461538" y="1128.576923076923"/>
      <point x="644.0" y="1128.576923076923" type="qcurve" smooth="yes"/>
      <point x="555.5384615384615" y="1128.576923076923"/>
      <point x="472.69230769230774" y="1083.6923076923078"/>
      <point x="472.69230769230774" y="1049.923076923077" type="qcurve" smooth="yes"/>
      <point x="472.69230769230774" y="1017.6538461538462"/>
      <point x="560.6923076923076" y="978.9615384615385"/>
      <point x="815.8076923076924" y="922.9615384615385" type="qcurve" smooth="yes"/>
      <point x="1068.884615384615" y="867.4230769230768"/>
      <point x="1330.6538461538462" y="660.6153846153848"/>
      <point x="1330.6538461538462" y="462.8846153846154" type="qcurve" smooth="yes"/>
      <point x="1330.6538461538462" y="245.03846153846158"/>
      <point x="959.576923076923" y="-14.615384615384617"/>
      <point x="656.8846153846155" y="-14.615384615384617" type="qcurve" smooth="yes"/>
      <point x="355.96153846153857" y="-14.615384615384617"/>
      <point x="-35.03846153846152" y="206.38461538461542"/>
    </contour>
    <contour>
      <point x="444.84615384615387" y="-150.73076923076923" type="line"/>
      <point x="444.84615384615387" y="362.6153846153846" type="line"/>
      <point x="852.5" y="362.6153846153846" type="line"/>
      <point x="852.5" y="99.26923076923077" type="line"/>
      <point x="864.8461538461538" y="89.26923076923077" type="line"/>
      <point x="864.8461538461538" y="-150.73076923076923" type="line"/>
    </contour>
    <contour>
      <point x="451.846153846154" y="1093.3846153846152" type="line"/>
      <point x="451.9592307692309" y="1356.0000000000002" type="line"/>
      <point x="439.42307692307696" y="1366.0000000000002" type="line"/>
      <point x="439.42307692307696" y="1606.0" type="line"/>
      <point x="859.4823076923077" y="1606.0" type="line"/>
      <point x="859.4230769230769" y="1093.3846153846152" type="line"/>
    </contour>
  </outline>
</glyph>
<glyph name="ampersand" format="2">
  <advance width="1733"/>
  <unicode hex="0026"/>
  <outline>
    <contour>
      <point x="31.15384615384615" y="379.2307692307692" type="qcurve" smooth="yes"/>
      <point x="31.15384615384615" y="539.9038461538461"/>
      <point x="238.8576923076923" y="737.4807692307693"/>
      <point x="469.79615384615386" y="845.8461538461539" type="qcurve" smooth="yes"/>
      <point x="684.9038461538461" y="943.4423076923076" type="line" smooth="yes"/>
      <point x="797.1923076923077" y="996.8846153846154"/>
      <point x="884.4876923076921" y="1096.9230769230771"/>
      <point x="884.4876923076921" y="1149.1153846153848" type="qcurve" smooth="yes"/>
      <point x="884.4876923076921" y="1195.7115384615386"/>
      <point x="828.8146153846153" y="1238.115384615385"/>
      <point x="777.4876923076923" y="1238.115384615385" type="qcurve" smooth="yes"/>
      <point x="722.7376923076922" y="1238.115384615385"/>
      <point x="658.8723076923077" y="1193.5384615384614"/>
      <point x="658.8723076923077" y="1148.6153846153848" type="qcurve" smooth="yes"/>
      <point x="658.8723076923077" y="1080.6346153846157"/>
      <point x="788.7899999999998" y="953.9230769230769"/>
      <point x="901.6384615384616" y="836.6538461538462" type="qcurve" smooth="yes"/>
      <point x="1728.1815384615384" y="0.0" type="line"/>
      <point x="1166.9684615384615" y="0.0" type="line"/>
      <point x="456.71538461538455" y="705.2692307692306" type="line" smooth="yes"/>
      <point x="316.8392307692308" y="843.25"/>
      <point x="185.44" y="1028.1538461538462"/>
      <point x="185.44" y="1132.538461538462" type="qcurve" smooth="yes"/>
      <point x="185.44" y="1300.8846153846152"/>
      <point x="491.18692307692305" y="1486.0"/>
      <point x="785.5261538461539" y="1486.0" type="qcurve" smooth="yes"/>
      <point x="1070.3846153846155" y="1486.0"/>
      <point x="1354.2661538461537" y="1314.1923076923078"/>
      <point x="1354.2661538461537" y="1140.115384615385" type="qcurve" smooth="yes"/>
      <point x="1354.2661538461537" y="999.519230769231"/>
      <point x="1156.800769230769" y="812.6923076923077"/>
      <point x="993.6538461538462" y="733.6153846153845" type="qcurve" smooth="yes"/>
      <point x="806.7384615384615" y="649.0769230769231" type="line" smooth="yes"/>
      <point x="596.7264104396372" y="546.4090052140284"/>
      <point x="508.5261538461538" y="472.0576923076923"/>
      <point x="508.5261538461538" y="424.4999999999999" type="qcurve" smooth="yes"/>
      <point x="508.5261538461538" y="359.5961538461537"/>
      <point x="618.7584615384616" y="300.9615384615385"/>
      <point x="709.9223076923076" y="300.9615384615385" type="qcurve" smooth="yes"/>
      <point x="864.6292307692307" y="300.9615384615385"/>
      <point x="1202.1800000000003" y="509.69230769230774"/>
      <point x="1230.68" y="738.3076923076923" type="qcurve"/>
      <point x="1693.8430769230772" y="738.3076923076923" type="line"/>
      <point x="1693.8430769230772" y="444.3076923076923"/>
      <point x="1087.6276923076923" y="-20.0"/>
      <point x="704.0761538461538" y="-20.0" type="qcurve" smooth="yes"/>
      <point x="359.3415384615385" y="-20.0"/>
      <point x="31.15384615384615" y="203.26923076923075"/>
    </contour>
  </outline>
</glyph>
<glyph name="quotesingle" format="2">
  <advance width="601"/>
  <unicode hex="0027"/>
  <outline>
    <contour>
      <point x="91.79615384615386" y="794.9615384615383" type="line"/>
      <point x="71.15384615384616" y="1240.6923076923078" type="line"/>
      <point x="71.15384615384616" y="1456.0" type="line"/>
      <point x="530.2153846153847" y="1456.0" type="line"/>
      <point x="530.2153846153847" y="1240.6923076923078" type="line"/>
      <point x="509.7653846153846" y="794.9615384615383" type="line"/>
    </contour>
  </outline>
</glyph>
<glyph name="parenleft" format="2">
  <advance width="802"/>
  <unicode hex="0028"/>
  <outline>
    <contour>
      <point x="817.7538461538461" y="-436.0" type="line"/>
      <point x="487.82307692307694" y="-379.7307692307692"/>
      <point x="61.076923076923066" y="75.92307692307692"/>
      <point x="61.076923076923066" y="514.2692307692307" type="qcurve" smooth="yes"/>
      <point x="61.076923076923066" y="525.0" type="line" smooth="yes"/>
      <point x="61.076923076923066" y="947.6538461538462"/>
      <point x="487.82307692307694" y="1419.7307692307695"/>
      <point x="817.7538461538461" y="1476.0" type="qcurve"/>
      <point x="817.7538461538461" y="1184.8846153846157" type="line"/>
      <point x="686.9490986675121" y="1145.9037008989383"/>
      <point x="587.6961538461538" y="884.5384615384615"/>
      <point x="587.6961538461538" y="532.0" type="qcurve" smooth="yes"/>
      <point x="587.6961538461538" y="508.0" type="line" smooth="yes"/>
      <point x="587.6961538461538" y="142.53846153846152"/>
      <point x="686.9490986675121" y="-105.90370089893838"/>
      <point x="817.7538461538461" y="-144.88461538461542" type="qcurve"/>
    </contour>
  </outline>
</glyph>
<glyph name="parenright" format="2">
  <advance width="802"/>
  <unicode hex="0029"/>
  <outline>
    <contour>
      <point x="-15.98076923076922" y="-436.0" type="qcurve"/>
      <point x="-15.98076923076922" y="-144.88461538461542" type="line"/>
      <point x="114.7346153846154" y="-105.96153846153847"/>
      <point x="214.9230769230769" y="142.53846153846152"/>
      <point x="214.9230769230769" y="508.0" type="qcurve" smooth="yes"/>
      <point x="214.9230769230769" y="532.0" type="line" smooth="yes"/>
      <point x="214.9230769230769" y="884.5384615384615"/>
      <point x="114.73461538461535" y="1145.9615384615383"/>
      <point x="-15.98076923076922" y="1184.8846153846157" type="qcurve"/>
      <point x="-15.98076923076922" y="1476.0" type="line"/>
      <point x="314.7192307692308" y="1419.7307692307695"/>
      <point x="740.6192307692307" y="948.3846153846154"/>
      <point x="740.6192307692307" y="525.7307692307693" type="qcurve" smooth="yes"/>
      <point x="740.6192307692307" y="515.0" type="line" smooth="yes"/>
      <point x="740.6192307692307" y="76.65384615384616"/>
      <point x="314.7192307692309" y="-379.73076923076917"/>
    </contour>
  </outline>
</glyph>
<glyph name="asterisk" format="2">
  <advance width="1133"/>
  <unicode hex="002A"/>
  <outline>
    <contour>
      <point x="6.846153846153847" y="935.6538461538462" type="line"/>
      <point x="129.6646153846154" y="1302.4038461538462" type="line"/>
      <point x="400.15461538461545" y="1179.1346153846152" type="line"/>
      <point x="367.7399999999999" y="1476.0" type="line"/>
      <point x="764.2015384615383" y="1476.0" type="line"/>
      <point x="733.2484615384616" y="1179.1346153846152" type="line"/>
      <point x="1003.7384615384617" y="1303.1346153846157" type="line"/>
      <point x="1125.8261538461538" y="936.3846153846155" type="line"/>
      <point x="834.3376923076924" y="876.1153846153846" type="line"/>
      <point x="1035.7561538461541" y="654.9230769230769" type="line"/>
      <point x="715.2646153846152" y="429.46153846153845" type="line"/>
      <point x="567.066923076923" y="688.8653846153846" type="line"/>
      <point x="418.8692307692308" y="429.46153846153845" type="line"/>
      <point x="99.10846153846155" y="654.9230769230769" type="line"/>
      <point x="298.3346153846154" y="876.1153846153846" type="line"/>
    </contour>
  </outline>
</glyph>
<glyph name="plus" format="2">
  <advance width="1279"/>
  <unicode hex="002B"/>
  <outline>
    <contour>
      <point x="50.169230769230765" y="466.1538461538463" type="line"/>
      <point x="50.169230769230765" y="888.3076923076923" type="line"/>
      <point x="1229.023076923077" y="888.3076923076923" type="line"/>
      <point x="1229.023076923077" y="466.1538461538463" type="line"/>
    </contour>
    <contour>
      <point x="411.75384615384615" y="116.23076923076921" type="line"/>
      <point x="411.75384615384615" y="1236.3846153846155" type="line"/>
      <point x="868.1692307692307" y="1236.3846153846155" type="line"/>
      <point x="868.1692307692307" y="116.23076923076921" type="line"/>
    </contour>
  </outline>
</glyph>
<glyph name="comma" format="2">
  <advance width="688"/>
  <unicode hex="002C"/>
  <outline>
    <contour>
      <point x="41.019230769230774" y="-170.42307692307693" type="line"/>
      <point x="88.58461538461538" y="-108.8846153846154"/>
      <point x="129.0384615384615" y="26.73076923076923"/>
      <point x="129.0384615384615" y="100.26923076923079" type="qcurve" smooth="yes"/>
      <point x="129.0384615384615" y="447.6923076923077" type="line"/>
      <point x="581.0384615384615" y="447.6923076923077" type="line"/>
      <point x="581.103076923077" y="103.1923076923077" type="line" smooth="yes"/>
      <point x="581.103076923077" y="10.153846153846146"/>
      <point x="501.11999999999995" y="-174.38461538461542"/>
      <point x="435.3007692307692" y="-228.8269230769231" type="qcurve"/>
    </contour>
  </outline>
</glyph>
<glyph name="hyphen" format="2">
  <advance width="900"/>
  <unicode hex="002D"/>
  <outline>
    <contour>
      <point x="52.53846153846153" y="429.2692307692308" type="line"/>
      <point x="52.53846153846153" y="823.4230769230768" type="line"/>
      <point x="847.8423076923076" y="823.4230769230768" type="line"/>
      <point x="847.8423076923076" y="429.2692307692308" type="line"/>
    </contour>
  </outline>
</glyph>
<glyph name="period" format="2">
  <advance width="704"/>
  <unicode hex="002E"/>
  <outline>
    <contour>
      <point x="74.46153846153844" y="233.23076923076923" type="qcurve" smooth="yes"/>
      <point x="74.46153846153844" y="339.6923076923076"/>
      <point x="218.30769230769238" y="484.9230769230769"/>
      <point x="352.30769230769226" y="484.9230769230769" type="qcurve" smooth="yes"/>
      <point x="485.65384615384625" y="484.9230769230769"/>
      <point x="629.5000000000001" y="339.6923076923076"/>
      <point x="629.5000000000001" y="234.07692307692307" type="qcurve" smooth="yes"/>
      <point x="629.5000000000001" y="125.91529023124116"/>
      <point x="485.65384615384625" y="-19.269230769230766"/>
      <point x="351.38461538461536" y="-19.269230769230766" type="qcurve" smooth="yes"/>
      <point x="218.30769230769238" y="-19.269230769230766"/>
      <point x="74.46153846153844" y="128.10759792354884"/>
    </contour>
  </outline>
</glyph>
<glyph name="slash" format="2">
  <advance width="955"/>
  <unicode hex="002F"/>
  <outline>
    <contour>
      <point x="-99.76923076923077" y="-125.0" type="line"/>
      <point x="569.5192307692307" y="1456.0" type="line"/>
      <point x="1009.8269230769231" y="1456.0" type="line"/>
      <point x="338.0961538461538" y="-125.0" type="line"/>
    </contour>
  </outline>
</glyph>
<glyph name="zero" format="2">
  <advance width="1480"/>
  <unicode hex="0030"/>
  <outline>
    <contour>
      <point x="44.73076923076923" y="616.1923076923077" type="qcurve" smooth="yes"/>
      <point x="44.73076923076923" y="841.9615384615385" type="line" smooth="yes"/>
      <point x="44.73076923076923" y="1140.5769230769229"/>
      <point x="415.1153846153847" y="1479.0"/>
      <point x="738.9615384615385" y="1479.0" type="qcurve" smooth="yes"/>
      <point x="1062.0" y="1479.0"/>
      <point x="1434.8461538461536" y="1147.8846153846152"/>
      <point x="1434.8461538461536" y="842.0384615384614" type="qcurve" smooth="yes"/>
      <point x="1434.8461538461536" y="616.0384615384615" type="line" smooth="yes"/>
      <point x="1434.8461538461536" y="301.19230769230774"/>
      <point x="1042.2692307692307" y="-23.0"/>
      <point x="738.9615384615385" y="-23.0" type="qcurve" smooth="yes"/>
      <point x="412.1923076923077" y="-23.0"/>
      <point x="44.73076923076923" y="304.3076923076923"/>
    </contour>
    <contour>
      <point x="571.3461538461539" y="522.5" type="line" smooth="yes"/>
      <point x="571.3461538461539" y="425.6923076923077"/>
      <point x="652.8461538461539" y="318.69230769230774"/>
      <point x="738.9615384615386" y="318.69230769230774" type="qcurve" smooth="yes"/>
      <point x="825.0" y="318.69230769230774"/>
      <point x="908.2307692307692" y="425.6923076923077"/>
      <point x="908.2307692307692" y="522.3461538461538" type="qcurve" smooth="yes"/>
      <point x="908.2307692307692" y="925.9230769230769" type="line" smooth="yes"/>
      <point x="908.2307692307692" y="1023.0384615384613"/>
      <point x="824.6923076923078" y="1130.5000000000005"/>
      <point x="738.9615384615386" y="1130.5000000000005" type="qcurve" smooth="yes"/>
      <point x="653.1538461538461" y="1130.5000000000005"/>
      <point x="571.3461538461539" y="1023.1153846153846"/>
      <point x="571.3461538461539" y="926.0" type="qcurve" smooth="yes"/>
    </contour>
  </outline>
</glyph>
<glyph name="one" format="2">
  <advance width="1480"/>
  <unicode hex="0031"/>
  <outline>
    <contour>
      <point x="629.0" y="0.0" type="line"/>
      <point x="629.0" y="1012.6153846153848" type="line"/>
      <point x="147.07692307692307" y="880.6153846153845" type="line"/>
      <point x="147.07692307692307" y="1292.923076923077" type="line"/>
      <point x="735.3846153846151" y="1457.8076923076924" type="line"/>
      <point x="1157.2692307692312" y="1457.8076923076924" type="line"/>
      <point x="1157.2692307692312" y="0.0" type="line"/>
    </contour>
  </outline>
</glyph>
<glyph name="two" format="2">
  <advance width="1480"/>
  <unicode hex="0032"/>
  <outline>
    <contour>
      <point x="31.57692307692309" y="0.0" type="line"/>
      <point x="31.57692307692309" y="297.7692307692307" type="line"/>
      <point x="722.2692307692305" y="824.1923076923078" type="line" smooth="yes"/>
      <point x="771.9615384615386" y="858.730769230769"/>
      <point x="857.0000000000001" y="958.9615384615386"/>
      <point x="857.0000000000001" y="1018.3846153846152" type="qcurve" smooth="yes"/>
      <point x="857.0000000000001" y="1081.8846153846152"/>
      <point x="785.0769230769231" y="1130.9615384615388"/>
      <point x="713.7692307692308" y="1130.9615384615388" type="qcurve" smooth="yes"/>
      <point x="633.7307692307693" y="1130.9615384615388"/>
      <point x="560.1538461538461" y="1054.0384615384617"/>
      <point x="560.1538461538461" y="946.769230769231" type="qcurve" smooth="yes"/>
      <point x="560.1538461538461" y="897.3461538461538" type="line"/>
      <point x="27.423076923076923" y="897.3461538461538" type="line"/>
      <point x="27.423076923076923" y="1009.6153846153848" type="line" smooth="yes"/>
      <point x="27.423076923076923" y="1194.730769230769"/>
      <point x="396.3846153846153" y="1479.0"/>
      <point x="721.5000000000001" y="1479.0" type="qcurve" smooth="yes"/>
      <point x="1058.576923076923" y="1479.0"/>
      <point x="1384.3846153846152" y="1236.8461538461536"/>
      <point x="1385.846153846154" y="1037.423076923077" type="qcurve" smooth="yes"/>
      <point x="1386.6538461538462" y="888.8846153846155"/>
      <point x="1246.807692307692" y="667.0769230769231"/>
      <point x="1122.2692307692307" y="577.769230769231" type="qcurve" smooth="yes"/>
      <point x="848.9615384615385" y="386.53846153846155" type="line"/>
      <point x="1427.3461538461538" y="386.53846153846155" type="line"/>
      <point x="1427.3461538461538" y="0.0" type="line"/>
    </contour>
  </outline>
</glyph>
<glyph name="three" format="2">
  <advance width="1480"/>
  <unicode hex="0033"/>
  <outline>
    <contour>
      <point x="29.69230769230769" y="442.3846153846154" type="qcurve" smooth="yes"/>
      <point x="29.69230769230769" y="536.076923076923" type="line"/>
      <point x="545.2307692307692" y="536.076923076923" type="line"/>
      <point x="545.2307692307692" y="460.92307692307696" type="line" smooth="yes"/>
      <point x="545.8846153846154" y="385.96153846153845"/>
      <point x="645.8846153846156" y="317.5384615384616"/>
      <point x="731.3076923076924" y="317.5384615384616" type="qcurve" smooth="yes"/>
      <point x="814.0384615384614" y="317.5384615384616"/>
      <point x="912.6923076923077" y="381.0"/>
      <point x="912.6923076923077" y="466.15384615384613" type="qcurve" smooth="yes"/>
      <point x="912.6923076923077" y="545.0000000000001"/>
      <point x="808.2307692307692" y="608.1153846153849"/>
      <point x="706.8076923076924" y="608.1153846153849" type="qcurve" smooth="yes"/>
      <point x="519.6538461538461" y="608.1153846153849" type="line"/>
      <point x="519.6538461538461" y="887.423076923077" type="line"/>
      <point x="701.0384615384617" y="887.423076923077" type="line" smooth="yes"/>
      <point x="784.576923076923" y="887.423076923077"/>
      <point x="883.8076923076924" y="951.5000000000001"/>
      <point x="883.8076923076924" y="1018.5384615384618" type="qcurve" smooth="yes"/>
      <point x="883.8076923076924" y="1084.8846153846155"/>
      <point x="796.3461538461539" y="1137.0000000000002"/>
      <point x="722.1538461538462" y="1137.0000000000002" type="qcurve" smooth="yes"/>
      <point x="646.1538461538462" y="1137.0000000000002"/>
      <point x="562.3076923076922" y="1066.0"/>
      <point x="562.3076923076922" y="1001.5384615384619" type="qcurve" smooth="yes"/>
      <point x="562.3076923076922" y="950.9230769230769" type="line"/>
      <point x="58.57692307692308" y="950.9230769230769" type="line"/>
      <point x="58.57692307692308" y="1016.1538461538463" type="line" smooth="yes"/>
      <point x="56.61538461538462" y="1231.8461538461538"/>
      <point x="434.5769230769231" y="1479.0"/>
      <point x="738.5384615384615" y="1479.0" type="qcurve" smooth="yes"/>
      <point x="1058.1923076923076" y="1479.0"/>
      <point x="1401.846153846154" y="1255.0384615384614"/>
      <point x="1401.846153846154" y="1077.3846153846155" type="qcurve" smooth="yes"/>
      <point x="1401.846153846154" y="977.6538461538461"/>
      <point x="1285.5" y="817.5384615384615"/>
      <point x="1166.8076923076922" y="766.7307692307693" type="qcurve"/>
      <point x="1166.8076923076922" y="762.7307692307693" type="line"/>
      <point x="1275.2307692307693" y="735.4615384615385"/>
      <point x="1441.9615384615383" y="569.3461538461539"/>
      <point x="1441.9615384615383" y="430.65384615384613" type="qcurve" smooth="yes"/>
      <point x="1441.9615384615383" y="235.80769230769226"/>
      <point x="1047.4999999999998" y="-23.0"/>
      <point x="732.923076923077" y="-23.0" type="qcurve" smooth="yes"/>
      <point x="407.3846153846153" y="-23.0"/>
      <point x="29.69230769230769" y="224.96153846153848"/>
    </contour>
  </outline>
</glyph>
<glyph name="four" format="2">
  <advance width="1480"/>
  <unicode hex="0034"/>
  <outline>
    <contour>
      <point x="785.3846153846154" y="0.0" type="line"/>
      <point x="785.3846153846154" y="356.3461538461538" type="line"/>
      <point x="803.0769230769231" y="380.5769230769231" type="line"/>
      <point x="803.0769230769231" y="881.5384615384617" type="line"/>
      <point x="793.2692307692307" y="881.5384615384617" type="line"/>
      <point x="517.9615384615386" y="619.6538461538462" type="line"/>
      <point x="974.269230769231" y="619.6538461538462" type="line"/>
      <point x="1022.0000000000001" y="635.0384615384615" type="line"/>
      <point x="1454.4615384615383" y="635.0384615384615" type="line"/>
      <point x="1454.4615384615383" y="248.23076923076923" type="line"/>
      <point x="28.38461538461539" y="248.23076923076923" type="line"/>
      <point x="28.38461538461539" y="597.3076923076922" type="line"/>
      <point x="838.8846153846155" y="1456.0" type="line"/>
      <point x="1268.6153846153845" y="1456.0" type="line"/>
      <point x="1268.6153846153845" y="0.0" type="line"/>
    </contour>
  </outline>
</glyph>
<glyph name="five" format="2">
  <advance width="1480"/>
  <unicode hex="0035"/>
  <outline>
    <contour>
      <point x="38.26923076923078" y="442.30769230769226" type="qcurve" smooth="yes"/>
      <point x="38.26923076923078" y="519.8461538461537" type="line"/>
      <point x="560.5769230769231" y="517.8846153846154" type="line"/>
      <point x="560.5769230769231" y="456.92307692307685" type="line" smooth="yes"/>
      <point x="560.5769230769231" y="384.0384615384615"/>
      <point x="651.5769230769231" y="317.69230769230774"/>
      <point x="736.5769230769231" y="317.69230769230774" type="qcurve" smooth="yes"/>
      <point x="816.6923076923077" y="317.69230769230774"/>
      <point x="907.8846153846154" y="389.15384615384613"/>
      <point x="907.8846153846154" y="495.26923076923083" type="qcurve" smooth="yes"/>
      <point x="907.8846153846154" y="597.0769230769232"/>
      <point x="817.8076923076923" y="664.6923076923077"/>
      <point x="738.1153846153845" y="664.6923076923077" type="qcurve" smooth="yes"/>
      <point x="680.423076923077" y="664.6923076923077"/>
      <point x="599.8846153846155" y="623.4230769230771"/>
      <point x="574.3846153846154" y="583.5769230769231" type="qcurve"/>
      <point x="72.6923076923077" y="667.8076923076922" type="line"/>
      <point x="152.96153846153845" y="1456.0" type="line"/>
      <point x="1354.9615384615386" y="1456.0" type="line"/>
      <point x="1354.9615384615386" y="1062.3076923076924" type="line"/>
      <point x="536.3076923076923" y="1072.1153846153848" type="line"/>
      <point x="524.6923076923076" y="904.7307692307693" type="line"/>
      <point x="596.4615384615383" y="938.4999999999999"/>
      <point x="786.5384615384615" y="983.5769230769232"/>
      <point x="886.423076923077" y="983.5769230769232" type="qcurve" smooth="yes"/>
      <point x="1120.8846153846155" y="983.5769230769232"/>
      <point x="1436.269230769231" y="746.076923076923"/>
      <point x="1436.269230769231" y="513.8076923076924" type="qcurve" smooth="yes"/>
      <point x="1436.269230769231" y="270.6923076923077"/>
      <point x="1076.4615384615386" y="-23.0"/>
      <point x="743.9230769230769" y="-23.0" type="qcurve" smooth="yes"/>
      <point x="428.7307692307692" y="-23.0"/>
      <point x="38.03846153846155" y="223.65384615384613"/>
    </contour>
  </outline>
</glyph>
<glyph name="six" format="2">
  <advance width="1480"/>
  <unicode hex="0036"/>
  <outline>
    <contour>
      <point x="38.73076923076923" y="589.7307692307693" type="qcurve" smooth="yes"/>
      <point x="38.73076923076923" y="681.8461538461539" type="line" smooth="yes"/>
      <point x="38.73076923076923" y="1044.0000000000002"/>
      <point x="606.3846153846154" y="1474.6538461538462"/>
      <point x="1139.5" y="1474.6538461538462" type="qcurve" smooth="yes"/>
      <point x="1255.1538461538462" y="1474.6538461538462" type="line"/>
      <point x="1255.1538461538462" y="1071.8461538461538" type="line"/>
      <point x="1158.0384615384617" y="1071.8461538461538" type="line" smooth="yes"/>
      <point x="864.2692307692307" y="1071.8461538461538"/>
      <point x="563.1923076923076" y="886.3846153846155"/>
      <point x="563.1923076923076" y="576.5384615384615" type="qcurve" smooth="yes"/>
      <point x="563.1923076923076" y="548.4615384615385" type="line" smooth="yes"/>
      <point x="563.1923076923076" y="394.7307692307692"/>
      <point x="666.6923076923077" y="315.6153846153846"/>
      <point x="747.423076923077" y="315.6153846153846" type="qcurve" smooth="yes"/>
      <point x="830.3846153846154" y="315.6153846153846"/>
      <point x="919.9615384615383" y="382.7692307692308"/>
      <point x="919.9615384615383" y="518.4230769230769" type="qcurve" smooth="yes"/>
      <point x="919.9615384615383" y="601.2692307692308"/>
      <point x="840.1538461538462" y="683.3846153846152"/>
      <point x="753.4999999999999" y="683.3846153846152" type="qcurve" smooth="yes"/>
      <point x="673.7307692307693" y="683.3846153846152"/>
      <point x="561.5769230769231" y="617.8846153846155"/>
      <point x="561.5769230769231" y="545.9230769230769" type="qcurve"/>
      <point x="491.46153846153845" y="546.5769230769232" type="line"/>
      <point x="491.46153846153845" y="750.7692307692308"/>
      <point x="767.3846153846154" y="957.1153846153846"/>
      <point x="957.4615384615383" y="957.1153846153846" type="qcurve" smooth="yes"/>
      <point x="1178.0384615384614" y="957.1153846153846"/>
      <point x="1447.769230769231" y="729.4615384615386"/>
      <point x="1447.6923076923078" y="506.2692307692308" type="qcurve" smooth="yes"/>
      <point x="1447.6153846153848" y="261.1153846153846"/>
      <point x="1043.6153846153845" y="-22.92307692307692"/>
      <point x="745.1923076923077" y="-22.92307692307692" type="qcurve" smooth="yes"/>
      <point x="428.0384615384616" y="-22.92307692307692"/>
      <point x="38.73076923076923" y="276.38461538461536"/>
    </contour>
  </outline>
</glyph>
<glyph name="seven" format="2">
  <advance width="1480"/>
  <unicode hex="0037"/>
  <outline>
    <contour>
      <point x="284.5" y="0.0" type="line"/>
      <point x="848.923076923077" y="1060.4230769230771" type="line"/>
      <point x="61.19230769230769" y="1060.4230769230771" type="line"/>
      <point x="61.17076923076924" y="1456.0" type="line"/>
      <point x="1391.5153846153848" y="1456.0" type="line"/>
      <point x="1391.5153846153848" y="1090.4615384615383" type="line"/>
      <point x="843.6923076923077" y="0.0" type="line"/>
    </contour>
  </outline>
</glyph>
<glyph name="eight" format="2">
  <advance width="1480"/>
  <unicode hex="0038"/>
  <outline>
    <contour>
      <point x="40.11538461538463" y="410.96153846153845" type="qcurve" smooth="yes"/>
      <point x="40.11538461538463" y="546.0769230769232"/>
      <point x="214.1153846153846" y="726.3076923076924"/>
      <point x="319.03846153846155" y="754.8461538461538" type="qcurve"/>
      <point x="319.03846153846155" y="758.8461538461538" type="line"/>
      <point x="212.26923076923075" y="804.9615384615387"/>
      <point x="86.80769230769234" y="969.1153846153845"/>
      <point x="86.80769230769234" y="1079.423076923077" type="qcurve" smooth="yes"/>
      <point x="86.80769230769234" y="1257.538461538462"/>
      <point x="437.46153846153845" y="1478.923076923077"/>
      <point x="740.0769230769231" y="1478.923076923077" type="qcurve" smooth="yes"/>
      <point x="1042.1923076923076" y="1478.923076923077"/>
      <point x="1394.038461538462" y="1255.6923076923076"/>
      <point x="1394.038461538462" y="1079.5" type="qcurve" smooth="yes"/>
      <point x="1394.038461538462" y="969.1153846153848"/>
      <point x="1267.730769230769" y="797.0384615384615"/>
      <point x="1162.3076923076924" y="758.8461538461538" type="qcurve"/>
      <point x="1162.3076923076924" y="754.8461538461538" type="line"/>
      <point x="1267.230769230769" y="726.307692307692"/>
      <point x="1441.3846153846152" y="546.076923076923"/>
      <point x="1441.3846153846152" y="410.96153846153845" type="qcurve" smooth="yes"/>
      <point x="1441.3846153846152" y="215.0"/>
      <point x="1052.3846153846152" y="-22.92307692307692"/>
      <point x="740.0769230769231" y="-22.92307692307692" type="qcurve" smooth="yes"/>
      <point x="426.9230769230769" y="-22.92307692307692"/>
      <point x="40.11538461538463" y="215.0"/>
    </contour>
    <contour>
      <point x="572.9999999999999" y="463.2307692307692" type="qcurve" smooth="yes"/>
      <point x="572.9999999999999" y="371.8461538461538"/>
      <point x="664.5384615384618" y="306.69230769230774"/>
      <point x="739.3461538461537" y="306.69230769230774" type="qcurve" smooth="yes"/>
      <point x="815.0769230769231" y="306.69230769230774"/>
      <point x="907.8461538461538" y="371.15384615384613"/>
      <point x="907.8461538461538" y="463.1538461538462" type="qcurve" smooth="yes"/>
      <point x="907.8461538461538" y="554.6538461538461"/>
      <point x="817.3846153846152" y="619.1538461538462"/>
      <point x="740.076923076923" y="619.1538461538462" type="qcurve" smooth="yes"/>
      <point x="663.6923076923076" y="619.1538461538462"/>
      <point x="572.9999999999999" y="555.7307692307693"/>
    </contour>
    <contour>
      <point x="589.7692307692306" y="1005.1538461538463" type="qcurve" smooth="yes"/>
      <point x="589.7692307692306" y="929.8076923076923"/>
      <point x="671.6153846153846" y="866.4615384615385"/>
      <point x="739.4230769230768" y="866.4615384615385" type="qcurve" smooth="yes"/>
      <point x="808.1538461538463" y="866.4615384615385"/>
      <point x="890.2692307692307" y="929.8076923076924"/>
      <point x="890.2692307692307" y="1005.1538461538463" type="qcurve" smooth="yes"/>
      <point x="890.2692307692307" y="1078.769230769231"/>
      <point x="806.1538461538463" y="1142.7307692307695"/>
      <point x="739.3461538461537" y="1142.7307692307695" type="qcurve" smooth="yes"/>
      <point x="673.4615384615386" y="1142.7307692307695"/>
      <point x="589.7692307692306" y="1078.7692307692305"/>
    </contour>
  </outline>
</glyph>
<glyph name="nine" format="2">
  <advance width="1480"/>
  <unicode hex="0039"/>
  <outline>
    <contour>
      <point x="25.692307692307683" y="954.5" type="qcurve" smooth="yes"/>
      <point x="25.76923076923076" y="1198.576923076923"/>
      <point x="432.46153846153857" y="1478.0384615384617"/>
      <point x="730.6153846153845" y="1478.0384615384617" type="qcurve" smooth="yes"/>
      <point x="1047.1153846153848" y="1478.0384615384617"/>
      <point x="1441.653846153846" y="1176.0384615384617"/>
      <point x="1441.653846153846" y="862.6923076923076" type="qcurve" smooth="yes"/>
      <point x="1441.653846153846" y="770.576923076923" type="line" smooth="yes"/>
      <point x="1441.653846153846" y="408.4230769230769"/>
      <point x="872.1153846153848" y="-23.576923076923073"/>
      <point x="339.0" y="-23.576923076923073" type="qcurve" smooth="yes"/>
      <point x="222.42307692307693" y="-23.576923076923073" type="line"/>
      <point x="222.42307692307693" y="370.7307692307692" type="line"/>
      <point x="320.46153846153845" y="370.7307692307692" type="line" smooth="yes"/>
      <point x="613.9615384615385" y="369.4230769230769"/>
      <point x="914.6538461538462" y="560.2307692307693"/>
      <point x="914.6538461538462" y="870.0769230769231" type="qcurve" smooth="yes"/>
      <point x="914.6538461538462" y="906.6538461538462" type="line" smooth="yes"/>
      <point x="914.6538461538462" y="1053.8461538461538"/>
      <point x="809.1153846153846" y="1132.961538461538"/>
      <point x="727.4615384615383" y="1132.961538461538" type="qcurve" smooth="yes"/>
      <point x="644.4999999999999" y="1132.961538461538"/>
      <point x="553.423076923077" y="1067.153846153846"/>
      <point x="553.423076923077" y="939.3846153846152" type="qcurve" smooth="yes"/>
      <point x="553.423076923077" y="849.3846153846155"/>
      <point x="637.4230769230769" y="768.6153846153846"/>
      <point x="724.076923076923" y="768.6153846153846" type="qcurve" smooth="yes"/>
      <point x="805.0384615384615" y="768.6153846153846"/>
      <point x="916.2692307692308" y="835.4615384615385"/>
      <point x="916.2692307692308" y="906.076923076923" type="qcurve"/>
      <point x="987.0384615384617" y="905.4230769230769" type="line"/>
      <point x="987.0384615384617" y="702.3076923076924"/>
      <point x="710.4615384615386" y="494.88461538461536"/>
      <point x="520.1153846153848" y="494.88461538461536" type="qcurve" smooth="yes"/>
      <point x="301.9230769230769" y="494.88461538461536"/>
      <point x="25.615384615384606" y="733.3076923076923"/>
    </contour>
  </outline>
</glyph>
<glyph name="colon" format="2">
  <advance width="664"/>
  <unicode hex="003A"/>
  <outline>
    <contour>
      <point x="74.84615384615384" y="212.8846153846154" type="qcurve" smooth="yes"/>
      <point x="74.84615384615384" y="309.62307692307684"/>
      <point x="207.76923076923075" y="442.7692307692308"/>
      <point x="331.8076923076923" y="442.7692307692308" type="qcurve" smooth="yes"/>
      <point x="456.5" y="442.7692307692308"/>
      <point x="589.6153846153844" y="309.62307692307684"/>
      <point x="589.6153846153844" y="212.8846153846154" type="qcurve" smooth="yes"/>
      <point x="589.6153846153844" y="113.81141439205953"/>
      <point x="456.54692307692306" y="-19.269230769230766"/>
      <point x="331.83307692307693" y="-19.269230769230766" type="qcurve" smooth="yes"/>
      <point x="208.77307692307693" y="-19.269230769230766"/>
      <point x="74.84615384615384" y="116.15756823821339"/>
    </contour>
    <contour>
      <point x="74.84615384615384" y="846.1923076923075" type="qcurve" smooth="yes"/>
      <point x="74.84615384615384" y="943.767808478049"/>
      <point x="207.85" y="1075.9138461538462"/>
      <point x="331.90999999999997" y="1075.9138461538462" type="qcurve" smooth="yes"/>
      <point x="456.62384615384616" y="1075.9138461538462"/>
      <point x="589.6153846153844" y="943.767808478049"/>
      <point x="589.6153846153844" y="846.0384615384614" type="qcurve" smooth="yes"/>
      <point x="589.6153846153844" y="746.7769230769233"/>
      <point x="456.4230769230769" y="613.8846153846154"/>
      <point x="331.7307692307692" y="613.8846153846154" type="qcurve" smooth="yes"/>
      <point x="208.69230769230768" y="613.8846153846154"/>
      <point x="74.84615384615384" y="749.123076923077"/>
    </contour>
  </outline>
</glyph>
<glyph name="semicolon" format="2">
  <advance width="663"/>
  <unicode hex="003B"/>
  <outline>
    <contour>
      <point x="51.747692307692326" y="-171.88461538461536" type="line"/>
      <point x="97.8515384615385" y="-111.80769230769232"/>
      <point x="137.6538461538462" y="20.076923076923073"/>
      <point x="137.4976923076923" y="91.57692307692308" type="qcurve" smooth="yes"/>
      <point x="137.38461538461542" y="422.84615384615387" type="line"/>
      <point x="569.0" y="422.84615384615387" type="line"/>
      <point x="569.0915384615383" y="94.50000000000001" type="line" smooth="yes"/>
      <point x="569.0915384615383" y="3.576923076923073"/>
      <point x="494.77538461538455" y="-176.38461538461536"/>
      <point x="431.41384615384624" y="-228.8269230769231" type="qcurve"/>
    </contour>
    <contour>
      <point x="77.53846153846155" y="846.1923076923075" type="qcurve" smooth="yes"/>
      <point x="77.53846153846155" y="943.767808478049"/>
      <point x="209.1517060442477" y="1075.9138461538462"/>
      <point x="331.9869230769231" y="1075.9138461538462" type="qcurve" smooth="yes"/>
      <point x="455.3237963997619" y="1075.9138461538462"/>
      <point x="586.9230769230769" y="943.767808478049"/>
      <point x="586.9230769230769" y="846.0384615384614" type="qcurve" smooth="yes"/>
      <point x="586.9230769230769" y="746.9652605459057"/>
      <point x="455.3461538461538" y="613.8846153846154"/>
      <point x="331.73076923076917" y="613.8846153846154" type="qcurve" smooth="yes"/>
      <point x="210.0384615384615" y="613.8846153846154"/>
      <point x="77.53846153846155" y="749.3114143920596"/>
    </contour>
  </outline>
</glyph>
<glyph name="less" format="2">
  <advance width="1194"/>
  <unicode hex="003C"/>
  <outline>
    <contour>
      <point x="1056.2384615384615" y="65.0" type="line"/>
      <point x="127.80000000000001" y="473.4807692307693" type="line"/>
      <point x="127.80000000000001" y="878.2115384615385" type="line"/>
      <point x="1056.2384615384615" y="1294.0000000000005" type="line"/>
      <point x="1056.2384615384615" y="846.2307692307694" type="line"/>
      <point x="564.6838461538462" y="671.2307692307692" type="line"/>
      <point x="1056.2384615384615" y="503.53846153846143" type="line"/>
    </contour>
  </outline>
</glyph>
<glyph name="equal" format="2">
  <advance width="1349"/>
  <unicode hex="003D"/>
  <outline>
    <contour>
      <point x="165.8230769230769" y="209.15384615384616" type="line"/>
      <point x="165.8230769230769" y="624.3076923076924" type="line"/>
      <point x="1183.9846153846152" y="624.3076923076924" type="line"/>
      <point x="1183.9846153846152" y="209.15384615384616" type="line"/>
    </contour>
    <contour>
      <point x="165.8230769230769" y="752.9230769230769" type="line"/>
      <point x="165.8230769230769" y="1168.076923076923" type="line"/>
      <point x="1183.9846153846152" y="1168.076923076923" type="line"/>
      <point x="1183.9846153846152" y="752.9230769230769" type="line"/>
    </contour>
  </outline>
</glyph>
<glyph name="greater" format="2">
  <advance width="1194"/>
  <unicode hex="003E"/>
  <outline>
    <contour>
      <point x="138.49230769230775" y="65.0" type="line"/>
      <point x="138.49230769230775" y="512.7692307692307" type="line"/>
      <point x="630.0469230769231" y="687.7692307692308" type="line"/>
      <point x="138.49230769230775" y="855.4615384615385" type="line"/>
      <point x="138.49230769230775" y="1294.0000000000005" type="line"/>
      <point x="1066.9307692307693" y="885.5192307692308" type="line"/>
      <point x="1066.9307692307693" y="480.78846153846155" type="line"/>
    </contour>
  </outline>
</glyph>
<glyph name="question" format="2">
  <advance width="1305"/>
  <unicode hex="003F"/>
  <outline>
    <contour>
      <point x="326.4807692307692" y="219.69230769230768" type="qcurve" smooth="yes"/>
      <point x="326.4807692307692" y="318.2307692307693"/>
      <point x="472.6769230769231" y="460.5384615384615"/>
      <point x="611.1215384615384" y="460.5384615384615" type="qcurve" smooth="yes"/>
      <point x="748.796923076923" y="460.5384615384615"/>
      <point x="894.9930769230771" y="318.2307692307693"/>
      <point x="894.9930769230771" y="219.69230769230768" type="qcurve" smooth="yes"/>
      <point x="894.9930769230771" y="121.07692307692307"/>
      <point x="748.796923076923" y="-21.23076923076923"/>
      <point x="611.1984615384615" y="-21.23076923076923" type="qcurve" smooth="yes"/>
      <point x="475.52307692307687" y="-21.23076923076923"/>
      <point x="326.4807692307692" y="121.15384615384613"/>
    </contour>
    <contour>
      <point x="3.038461538461547" y="987.0961538461538" type="line"/>
      <point x="3.038461538461547" y="1077.7884615384617" type="line" smooth="yes"/>
      <point x="3.038461538461547" y="1247.807692307692"/>
      <point x="330.63153846153847" y="1476.3076923076924"/>
      <point x="634.9423076923075" y="1476.3076923076924" type="qcurve" smooth="yes"/>
      <point x="960.1638461538462" y="1476.3076923076924"/>
      <point x="1300.313076923077" y="1280.346153846154"/>
      <point x="1300.313076923077" y="1119.1923076923076" type="qcurve" smooth="yes"/>
      <point x="1300.313076923077" y="975.3461538461537"/>
      <point x="1168.156153846154" y="823.1923076923075"/>
      <point x="1062.3376923076921" y="752.4230769230769" type="qcurve" smooth="yes"/>
      <point x="953.1669230769229" y="677.9038461538462"/>
      <point x="861.3807692307694" y="599.9615384615386"/>
      <point x="861.3807692307694" y="544.8846153846154" type="qcurve" smooth="yes"/>
      <point x="861.3807692307694" y="514.0384615384615" type="line"/>
      <point x="359.83000000000004" y="514.0384615384615" type="line"/>
      <point x="359.83000000000004" y="561.6923076923076" type="line" smooth="yes"/>
      <point x="359.6761538461539" y="661.826923076923"/>
      <point x="470.2776923076923" y="804.0384615384615"/>
      <point x="598.6938461538463" y="886.4423076923077" type="qcurve" smooth="yes"/>
      <point x="703.13" y="952.5192307692308"/>
      <point x="761.3007692307693" y="1002.7115384615386"/>
      <point x="761.3007692307693" y="1044.4615384615383" type="qcurve" smooth="yes"/>
      <point x="761.3007692307693" y="1086.6346153846152"/>
      <point x="690.2692307692307" y="1129.3076923076926"/>
      <point x="612.2884615384615" y="1129.3076923076926" type="qcurve" smooth="yes"/>
      <point x="532.7884615384614" y="1129.3076923076926"/>
      <point x="454.0961538461538" y="1072.480769230769"/>
      <point x="454.0961538461538" y="1012.0192307692311" type="qcurve" smooth="yes"/>
      <point x="454.0961538461538" y="987.0961538461538" type="line"/>
    </contour>
  </outline>
</glyph>
<glyph name="at" format="2">
  <advance width="2438"/>
  <unicode hex="0040"/>
  <outline>
    <contour>
      <point x="658.3546153846153" y="400.0" type="qcurve" smooth="yes"/>
      <point x="658.3546153846153" y="698.2692307692307"/>
      <point x="1032.606923076923" y="1052.0"/>
      <point x="1277.7123076923078" y="1052.0" type="qcurve" smooth="yes"/>
      <point x="1369.4623076923076" y="1052.0"/>
      <point x="1526.8276923076921" y="998.1538461538463"/>
      <point x="1575.9238461538462" y="946.0" type="qcurve"/>
      <point x="1866.1276923076923" y="946.0" type="line"/>
      <point x="1745.4353846153842" y="350.0" type="line" smooth="yes"/>
      <point x="1734.1338381201222" y="293.7744767134232"/>
      <point x="1765.6117771883291" y="249.69230769230768"/>
      <point x="1812.7815384615385" y="248.96153846153842" type="qcurve" smooth="yes"/>
      <point x="1906.550969551282" y="248.23076923076923"/>
      <point x="2026.8584615384625" y="436.7115384615385"/>
      <point x="2026.8584615384625" y="612.7307692307693" type="qcurve" smooth="yes"/>
      <point x="2026.8584615384625" y="855.6266288356453"/>
      <point x="1637.0611345079503" y="1167.3846153846155"/>
      <point x="1284.7892307692307" y="1167.3846153846155" type="qcurve" smooth="yes"/>
      <point x="935.3071153846155" y="1167.3846153846155"/>
      <point x="476.1046153846154" y="751.2835692724055"/>
      <point x="476.1046153846154" y="422.7307692307692" type="qcurve" smooth="yes"/>
      <point x="476.1046153846154" y="160.49404117009746"/>
      <point x="826.6176923076922" y="-114.23076923076925"/>
      <point x="1126.423846153846" y="-114.23076923076925" type="qcurve" smooth="yes"/>
      <point x="1265.4046153846155" y="-114.23076923076925"/>
      <point x="1461.1161538461538" y="-66.8076923076923"/>
      <point x="1525.5776923076924" y="-31.53846153846154" type="qcurve"/>
      <point x="1525.5776923076924" y="-363.3076923076923" type="line"/>
      <point x="1456.4708436392245" y="-406.1242151840738"/>
      <point x="1265.4046153846155" y="-446.0"/>
      <point x="1126.423846153846" y="-446.0" type="qcurve" smooth="yes"/>
      <point x="679.0607692307692" y="-446.0"/>
      <point x="32.15384615384616" y="40.0"/>
      <point x="32.15384615384616" y="460.0" type="qcurve" smooth="yes"/>
      <point x="32.15384615384616" y="880.0"/>
      <point x="772.1569230769231" y="1486.0"/>
      <point x="1284.7892307692307" y="1486.0" type="qcurve" smooth="yes"/>
      <point x="1783.05" y="1486.0"/>
      <point x="2411.3123076923075" y="1000.0"/>
      <point x="2411.3123076923075" y="650.0" type="qcurve" smooth="yes"/>
      <point x="2411.3123076923075" y="360.0"/>
      <point x="2052.186907743419" y="0.0"/>
      <point x="1764.2546153846154" y="0.0" type="qcurve" smooth="yes"/>
      <point x="1609.5823076923077" y="0.0"/>
      <point x="1421.2461538461534" y="96.96153846153847"/>
      <point x="1379.5853846153846" y="180.0" type="qcurve"/>
      <point x="1327.8984615384616" y="96.28846153846155"/>
      <point x="1156.6992307692308" y="0.0"/>
      <point x="1061.500769230769" y="0.0" type="qcurve" smooth="yes"/>
      <point x="877.2470742358075" y="0.0"/>
      <point x="658.3546153846153" y="219.15384615384616"/>
    </contour>
    <contour>
      <point x="1102.3853846153847" y="419.7307692307692" type="qcurve" smooth="yes"/>
      <point x="1102.3853846153847" y="347.9423076923076"/>
      <point x="1155.689975186104" y="293.8076923076923"/>
      <point x="1206.7892307692307" y="293.8076923076923" type="qcurve" smooth="yes"/>
      <point x="1256.9830769230769" y="293.8076923076923"/>
      <point x="1335.4107692307691" y="346.9807692307693"/>
      <point x="1351.2430769230768" y="416.8461538461538" type="qcurve" smooth="yes"/>
      <point x="1416.093076923077" y="761.9999999999999" type="line"/>
      <point x="1392.6507692307694" y="776.5384615384615"/>
      <point x="1336.1507692307694" y="786.4615384615383"/>
      <point x="1307.4969230769234" y="786.4615384615383" type="qcurve" smooth="yes"/>
      <point x="1223.1774527112232" y="786.4615384615383"/>
      <point x="1102.3853846153847" y="566.0769230769231"/>
    </contour>
  </outline>
</glyph>
<glyph name="A" format="2">
  <advance width="1645"/>
  <unicode hex="0041"/>
  <anchor x="732.5076923076922" y="1432.0" name="top"/>
  <outline>
    <contour>
      <point x="-16.153846153846153" y="0.0" type="line"/>
      <point x="533.8846153846155" y="1457.269230769231" type="line"/>
      <point x="1127.9576923076922" y="1457.269230769231" type="line"/>
      <point x="1661.7076923076922" y="0.0" type="line"/>
      <point x="1128.996153846154" y="0.0" type="line"/>
      <point x="858.7830769230768" y="801.1923076923078" type="line" smooth="yes"/>
      <point x="840.4946153846154" y="851.1153846153846"/>
      <point x="815.7446153846155" y="928.1538461538465"/>
      <point x="808.4753846153847" y="948.4615384615382" type="qcurve"/>
      <point x="803.0138461538461" y="948.4615384615382" type="line"/>
      <point x="795.8215384615384" y="928.1538461538465"/>
      <point x="770.4946153846155" y="851.8461538461539"/>
      <point x="754.4369230769232" y="801.846153846154" type="qcurve" smooth="yes"/>
      <point x="497.7130769230769" y="0.0" type="line"/>
    </contour>
    <contour>
      <point x="400.7307692307692" y="205.03846153846155" type="line"/>
      <point x="451.3076923076923" y="539.1153846153846" type="line"/>
      <point x="1177.0746153846155" y="539.1153846153846" type="line"/>
      <point x="1229.5261538461539" y="205.03846153846155" type="line"/>
    </contour>
  </outline>
</glyph>
<glyph name="B" format="2">
  <advance width="1541"/>
  <unicode hex="0042"/>
  <outline>
    <contour>
      <point x="82.69230769230771" y="0.0" type="line"/>
      <point x="82.69230769230771" y="1456.0" type="line"/>
      <point x="904.1984615384614" y="1456.0" type="line" smooth="yes"/>
      <point x="1185.7509387222944" y="1456.0"/>
      <point x="1445.2676923076924" y="1252.4615384615386"/>
      <point x="1445.2676923076924" y="1081.6923076923076" type="qcurve" smooth="yes"/>
      <point x="1445.2676923076924" y="959.5"/>
      <point x="1322.157966486837" y="801.3054308192516"/>
      <point x="1221.5753846153848" y="767.2692307692307" type="qcurve"/>
      <point x="1221.5753846153848" y="763.2692307692307" type="line"/>
      <point x="1344.1402437872314" y="736.6713416674905"/>
      <point x="1513.7292307692308" y="574.4230769230769"/>
      <point x="1513.7292307692308" y="416.5384615384615" type="qcurve" smooth="yes"/>
      <point x="1513.7292307692308" y="221.3846153846154"/>
      <point x="1196.9188782051283" y="0.0"/>
      <point x="924.736923076923" y="0.0" type="qcurve" smooth="yes"/>
    </contour>
    <contour>
      <point x="598.5830769230769" y="328.50000000000006" type="line"/>
      <point x="788.0830769230769" y="328.50000000000006" type="line" smooth="yes"/>
      <point x="881.58175066313" y="328.50000000000006"/>
      <point x="976.3523076923076" y="404.38461538461536"/>
      <point x="976.3523076923076" y="467.5384615384615" type="qcurve" smooth="yes"/>
      <point x="976.3523076923076" y="528.7307692307692"/>
      <point x="881.58175066313" y="602.9230769230769"/>
      <point x="788.0830769230769" y="602.9230769230769" type="qcurve" smooth="yes"/>
      <point x="598.5830769230769" y="602.9230769230769" type="line"/>
    </contour>
    <contour>
      <point x="598.5830769230769" y="855.4230769230769" type="line"/>
      <point x="773.3907692307693" y="855.4230769230769" type="line" smooth="yes"/>
      <point x="861.5765302782324" y="855.4230769230769"/>
      <point x="942.2369230769231" y="923.2692307692308"/>
      <point x="942.2369230769231" y="984.1923076923078" type="qcurve" smooth="yes"/>
      <point x="942.2369230769231" y="1044.1923076923076"/>
      <point x="861.5765302782324" y="1111.269230769231"/>
      <point x="773.3907692307693" y="1111.269230769231" type="qcurve" smooth="yes"/>
      <point x="598.5830769230769" y="1111.269230769231" type="line"/>
    </contour>
  </outline>
</glyph>
<glyph name="C" format="2">
  <advance width="1575"/>
  <unicode hex="0043"/>
  <anchor x="755.6876923076921" y="0" name="bottom"/>
  <outline>
    <contour>
      <point x="49.230769230769226" y="702.9615384615385" type="qcurve" smooth="yes"/>
      <point x="49.230769230769226" y="752.5769230769231" type="line" smooth="yes"/>
      <point x="49.230769230769226" y="1129.9615384615386"/>
      <point x="485.8115384615384" y="1478.346153846154"/>
      <point x="834.9184615384614" y="1478.346153846154" type="qcurve" smooth="yes"/>
      <point x="1164.8383032490974" y="1478.346153846154"/>
      <point x="1543.51" y="1219.6346153846155"/>
      <point x="1550.2930769230768" y="953.576923076923" type="qcurve" smooth="yes"/>
      <point x="1551.043076923077" y="845.5000000000001" type="line"/>
      <point x="1049.8415384615387" y="845.5000000000001" type="line"/>
      <point x="1049.0915384615382" y="995.8846153846155" type="line" smooth="yes"/>
      <point x="1046.4126233625839" y="1049.1756217704817"/>
      <point x="944.4376923076923" y="1126.3846153846157"/>
      <point x="845.456923076923" y="1126.3846153846157" type="qcurve" smooth="yes"/>
      <point x="741.6300000000001" y="1126.3846153846157"/>
      <point x="614.533846153846" y="1008.0898371701292"/>
      <point x="614.533846153846" y="889.3461538461538" type="qcurve" smooth="yes"/>
      <point x="614.533846153846" y="567.0" type="line" smooth="yes"/>
      <point x="614.533846153846" y="442.6024705221786"/>
      <point x="741.3607692307693" y="320.6153846153846"/>
      <point x="845.6107692307692" y="320.6153846153846" type="qcurve" smooth="yes"/>
      <point x="946.5530769230768" y="320.6153846153846"/>
      <point x="1046.6433925933534" y="410.247455152595"/>
      <point x="1049.1684615384613" y="490.2692307692308" type="qcurve" smooth="yes"/>
      <point x="1049.9184615384618" y="603.1923076923076" type="line"/>
      <point x="1551.043076923077" y="603.1923076923076" type="line"/>
      <point x="1550.37" y="476.4230769230769" type="line" smooth="yes"/>
      <point x="1545.086923076923" y="240.28846153846155"/>
      <point x="1166.9921494029434" y="-22.346153846153843"/>
      <point x="835.0723076923075" y="-22.346153846153843" type="qcurve" smooth="yes"/>
      <point x="484.5038461538462" y="-22.346153846153843"/>
      <point x="49.230769230769226" y="330.8461538461538"/>
    </contour>
  </outline>
</glyph>
<glyph name="D" format="2">
  <advance width="1588"/>
  <unicode hex="0044"/>
  <outline>
    <contour>
      <point x="82.69230769230771" y="0.0" type="line"/>
      <point x="82.69230769230771" y="1456.0" type="line"/>
      <point x="804.3246153846154" y="1456.0" type="line" smooth="yes"/>
      <point x="1141.1002903244075" y="1456.0"/>
      <point x="1539.9738461538464" y="1087.576923076923"/>
      <point x="1539.9738461538464" y="756.8461538461538" type="qcurve" smooth="yes"/>
      <point x="1539.9738461538464" y="707.0769230769231" type="line" smooth="yes"/>
      <point x="1539.9738461538464" y="377.38461538461536"/>
      <point x="1136.7156749397918" y="0.0"/>
      <point x="804.3246153846154" y="0.0" type="qcurve" smooth="yes"/>
    </contour>
    <contour>
      <point x="598.94" y="349.0" type="line"/>
      <point x="750.2476923076925" y="349.0" type="line" smooth="yes"/>
      <point x="866.8082145613586" y="349.0"/>
      <point x="1004.7861538461539" y="488.36538461538464"/>
      <point x="1004.7861538461539" y="639.3461538461538" type="qcurve" smooth="yes"/>
      <point x="1004.7861538461539" y="814.6538461538461" type="line" smooth="yes"/>
      <point x="1004.7861538461539" y="967.6346153846155"/>
      <point x="870.0005222536661" y="1092.3846153846152"/>
      <point x="750.2476923076925" y="1092.3846153846152" type="qcurve" smooth="yes"/>
      <point x="598.94" y="1092.3846153846152" type="line"/>
    </contour>
  </outline>
</glyph>
<glyph name="E" format="2">
  <advance width="1392"/>
  <unicode hex="0045"/>
  <anchor x="667.2476923076924" y="1317.5384615384617" name="top"/>
  <outline>
    <contour>
      <point x="82.69230769230771" y="0.0" type="line"/>
      <point x="82.69230769230771" y="1456.0" type="line"/>
      <point x="1334.3630769230772" y="1456.0" type="line"/>
      <point x="1334.3630769230772" y="1054.461538461538" type="line"/>
      <point x="590.6323076923079" y="1054.461538461538" type="line"/>
      <point x="590.6323076923079" y="905.8461538461538" type="line"/>
      <point x="1241.5169230769231" y="905.8461538461538" type="line"/>
      <point x="1241.5169230769231" y="556.5384615384614" type="line"/>
      <point x="590.6323076923079" y="556.5384615384614" type="line"/>
      <point x="590.6323076923079" y="386.9230769230769" type="line"/>
      <point x="1352.5938461538462" y="386.9230769230769" type="line"/>
      <point x="1352.5938461538462" y="0.0" type="line"/>
    </contour>
  </outline>
</glyph>
<glyph name="F" format="2">
  <advance width="1293"/>
  <unicode hex="0046"/>
  <outline>
    <contour>
      <point x="82.69230769230771" y="0.0" type="line"/>
      <point x="82.69230769230771" y="1456.0" type="line"/>
      <point x="1269.4015384615386" y="1456.0" type="line"/>
      <point x="1269.4015384615386" y="1055.1923076923074" type="line"/>
      <point x="613.4015384615384" y="1055.1923076923074" type="line"/>
      <point x="613.4015384615384" y="870.6923076923078" type="line"/>
      <point x="1188.209230769231" y="870.6923076923078" type="line"/>
      <point x="1188.209230769231" y="507.2307692307693" type="line"/>
      <point x="613.4015384615384" y="507.2307692307693" type="line"/>
      <point x="613.4015384615384" y="0.0" type="line"/>
    </contour>
  </outline>
</glyph>
<glyph name="G" format="2">
  <advance width="1591"/>
  <unicode hex="0047"/>
  <outline>
    <contour>
      <point x="48.500000000000014" y="704.2692307692308" type="qcurve" smooth="yes"/>
      <point x="48.500000000000014" y="753.2692307692307" type="line" smooth="yes"/>
      <point x="48.500000000000014" y="1113.576923076923"/>
      <point x="494.23461538461544" y="1478.923076923077"/>
      <point x="850.7646153846154" y="1478.923076923077" type="qcurve" smooth="yes"/>
      <point x="1179.1190829995855" y="1478.923076923077"/>
      <point x="1535.0169230769231" y="1212.7884615384614"/>
      <point x="1542.1776923076923" y="997.4615384615386" type="qcurve" smooth="yes"/>
      <point x="1543.62" y="948.1153846153846" type="line"/>
      <point x="1044.3030769230768" y="948.1153846153846" type="line"/>
      <point x="1043.0146153846156" y="969.3076923076923" type="line" smooth="yes"/>
      <point x="1039.8815384615389" y="1039.5769230769233"/>
      <point x="933.5146153846155" y="1110.7500000000005"/>
      <point x="832.3415384615384" y="1110.7500000000005" type="qcurve" smooth="yes"/>
      <point x="727.0915384615384" y="1110.7500000000005"/>
      <point x="599.9184615384613" y="1001.1350364963504"/>
      <point x="599.9184615384613" y="873.576923076923" type="qcurve" smooth="yes"/>
      <point x="599.9184615384613" y="575.6538461538463" type="line" smooth="yes"/>
      <point x="599.9184615384613" y="457.172655811342"/>
      <point x="732.1684615384615" y="328.2884615384615"/>
      <point x="850.456923076923" y="328.2884615384615" type="qcurve" smooth="yes"/>
      <point x="916.7523076923077" y="328.2884615384615"/>
      <point x="1011.4199999999997" y="346.0961538461538"/>
      <point x="1049.676923076923" y="367.7115384615385" type="qcurve"/>
      <point x="1049.676923076923" y="496.2692307692307" type="line"/>
      <point x="831.1492307692308" y="496.2692307692307" type="line"/>
      <point x="831.1492307692308" y="830.5" type="line"/>
      <point x="1552.5046153846156" y="831.9615384615385" type="line"/>
      <point x="1552.5046153846156" y="205.76923076923075" type="line"/>
      <point x="1471.8073010006979" y="125.4808490558367"/>
      <point x="1122.8667132867133" y="-22.846153846153847"/>
      <point x="844.9569230769231" y="-22.846153846153847" type="qcurve" smooth="yes"/>
      <point x="492.60384615384623" y="-22.846153846153847"/>
      <point x="48.500000000000014" y="342.57692307692315"/>
    </contour>
  </outline>
</glyph>
<glyph name="H" format="2">
  <advance width="1613"/>
  <unicode hex="0048"/>
  <outline>
    <contour>
      <point x="82.69230769230771" y="0.0" type="line"/>
      <point x="82.69230769230771" y="1456.0" type="line"/>
      <point x="613.5553846153846" y="1456.0" type="line"/>
      <point x="613.5553846153846" y="964.9423076923076" type="line"/>
      <point x="1000.0169230769229" y="964.9423076923076" type="line"/>
      <point x="1000.0169230769229" y="1456.0" type="line"/>
      <point x="1529.9569230769227" y="1456.0" type="line"/>
      <point x="1529.9569230769227" y="0.0" type="line"/>
      <point x="1000.0169230769229" y="0.0" type="line"/>
      <point x="1000.0169230769229" y="538.9807692307693" type="line"/>
      <point x="613.5553846153846" y="538.9807692307693" type="line"/>
      <point x="613.5553846153846" y="0.0" type="line"/>
    </contour>
  </outline>
</glyph>
<glyph name="I" format="2">
  <advance width="711"/>
  <unicode hex="0049"/>
  <anchor x="358.54692307692306" y="1432.0" name="top"/>
  <outline>
    <contour>
      <point x="86.19230769230771" y="0.0" type="line"/>
      <point x="86.19230769230771" y="1456.0" type="line"/>
      <point x="623.44" y="1456.0" type="line"/>
      <point x="623.44" y="0.0" type="line"/>
    </contour>
  </outline>
</glyph>
<glyph name="J" format="2">
  <advance width="1411"/>
  <unicode hex="004A"/>
  <outline>
    <contour>
      <point x="25.0" y="541.1538461538462" type="qcurve" smooth="yes"/>
      <point x="25.0" y="626.6923076923077" type="line"/>
      <point x="495.0169230769231" y="626.6923076923077" type="line"/>
      <point x="495.0169230769231" y="481.11538461538464" type="line" smooth="yes"/>
      <point x="495.0169230769231" y="398.1923076923078"/>
      <point x="575.4015384615384" y="320.0192307692307"/>
      <point x="648.2476923076922" y="320.0192307692307" type="qcurve" smooth="yes"/>
      <point x="722.5169230769229" y="320.0192307692307"/>
      <point x="803.7476923076924" y="404.98034436256927"/>
      <point x="803.7476923076924" y="495.88461538461553" type="qcurve" smooth="yes"/>
      <point x="803.7476923076924" y="1456.0" type="line"/>
      <point x="1334.4184615384618" y="1456.0" type="line"/>
      <point x="1334.4184615384618" y="557.3846153846155" type="line" smooth="yes"/>
      <point x="1334.4184615384618" y="283.75"/>
      <point x="1004.9246153846155" y="-23.0"/>
      <point x="680.0553846153846" y="-23.0" type="qcurve" smooth="yes"/>
      <point x="364.68615384615373" y="-23.0"/>
      <point x="25.0" y="251.21153846153848"/>
    </contour>
  </outline>
</glyph>
<glyph name="K" format="2">
  <advance width="1588"/>
  <unicode hex="004B"/>
  <outline>
    <contour>
      <point x="82.69230769230771" y="0.0" type="line"/>
      <point x="82.69230769230771" y="1456.0" type="line"/>
      <point x="613.5553846153846" y="1456.0" type="line"/>
      <point x="613.5553846153846" y="992.3269230769231" type="line"/>
      <point x="1050.4615384615383" y="1456.0" type="line"/>
      <point x="1605.4784615384615" y="1456.0" type="line"/>
      <point x="613.5553846153846" y="387.88461538461536" type="line"/>
      <point x="613.5553846153846" y="0.0" type="line"/>
    </contour>
    <contour>
      <point x="1060.7323076923074" y="0.0" type="line"/>
      <point x="612.7507692307693" y="636.6153846153848" type="line"/>
      <point x="939.5892307692308" y="1020.0" type="line"/>
      <point x="1677.155384615385" y="0.0" type="line"/>
    </contour>
  </outline>
</glyph>
<glyph name="L" format="2">
  <advance width="1293"/>
  <unicode hex="004C"/>
  <outline>
    <contour>
      <point x="82.69230769230771" y="0.0" type="line"/>
      <point x="82.69230769230771" y="1456.0" type="line"/>
      <point x="613.5553846153846" y="1456.0" type="line"/>
      <point x="613.5553846153846" y="403.07692307692304" type="line"/>
      <point x="1272.709230769231" y="403.07692307692304" type="line"/>
      <point x="1272.709230769231" y="0.0" type="line"/>
    </contour>
  </outline>
</glyph>
<glyph name="M" format="2">
  <advance width="2217"/>
  <unicode hex="004D"/>
  <outline>
    <contour>
      <point x="82.69230769230771" y="0.0" type="line"/>
      <point x="82.69230769230771" y="1456.0" type="line"/>
      <point x="815.6846153846152" y="1456.0" type="line"/>
      <point x="1066.7730769230768" y="818.7884615384617" type="line" smooth="yes"/>
      <point x="1077.2923076923078" y="785.5576923076924"/>
      <point x="1098.3692307692306" y="719.0769230769231"/>
      <point x="1105.6961538461537" y="683.7307692307692" type="qcurve"/>
      <point x="1111.2153846153847" y="683.7307692307692" type="line"/>
      <point x="1118.542307692308" y="719.0769230769231"/>
      <point x="1135.85" y="785.5576923076924"/>
      <point x="1146.3692307692306" y="818.7884615384617" type="qcurve" smooth="yes"/>
      <point x="1401.4053846153847" y="1456.0" type="line"/>
      <point x="2134.2469230769225" y="1456.0" type="line"/>
      <point x="2134.2469230769225" y="0.0" type="line"/>
      <point x="1612.15" y="0.0" type="line"/>
      <point x="1612.15" y="681.1538461538461" type="line" smooth="yes"/>
      <point x="1612.15" y="714.1923076923077"/>
      <point x="1613.4961538461537" y="793.673076923077"/>
      <point x="1616.4" y="826.7115384615386" type="qcurve"/>
      <point x="1611.976923076923" y="826.7115384615386" type="line"/>
      <point x="1604.8615384615387" y="792.1346153846154"/>
      <point x="1586.726923076923" y="715.1538461538463"/>
      <point x="1576.4769230769232" y="681.3846153846154" type="qcurve" smooth="yes"/>
      <point x="1322.9361538461535" y="0.0" type="line"/>
      <point x="864.9000000000002" y="0.0" type="line"/>
      <point x="611.2053846153847" y="681.2307692307692" type="line" smooth="yes"/>
      <point x="600.9553846153848" y="714.9230769230771"/>
      <point x="582.3207692307692" y="792.9807692307695"/>
      <point x="575.9361538461538" y="826.2500000000001" type="qcurve"/>
      <point x="569.4169230769231" y="826.2500000000001" type="line"/>
      <point x="571.5323076923077" y="792.7500000000002"/>
      <point x="575.1092307692307" y="713.8076923076925"/>
      <point x="575.1092307692307" y="681.076923076923" type="qcurve" smooth="yes"/>
      <point x="575.1092307692309" y="0.0" type="line"/>
    </contour>
  </outline>
</glyph>
<glyph name="N" format="2">
  <advance width="1573"/>
  <unicode hex="004E"/>
  <anchor x="713.3523076923077" y="1432.0" name="top"/>
  <outline>
    <contour>
      <point x="82.69230769230771" y="0.0" type="line"/>
      <point x="82.69230769230771" y="1456.0" type="line"/>
      <point x="620.8907692307691" y="1456.0" type="line"/>
      <point x="977.2176923076925" y="856.2115384615385" type="line" smooth="yes"/>
      <point x="989.9484615384612" y="825.7115384615385"/>
      <point x="1013.4484615384617" y="751.7692307692308"/>
      <point x="1021.1792307692306" y="721.6730769230768" type="qcurve"/>
      <point x="1026.1215384615386" y="721.6730769230768" type="line"/>
      <point x="1024.006153846154" y="755.0192307692307"/>
      <point x="1024.5061538461543" y="824.9423076923076"/>
      <point x="1024.5061538461543" y="858.2884615384614" type="qcurve" smooth="yes"/>
      <point x="1024.5061538461543" y="1456.0" type="line"/>
      <point x="1471.0892307692307" y="1456.0" type="line"/>
      <point x="1471.0892307692307" y="0.0" type="line"/>
      <point x="944.9292307692307" y="0.0" type="line"/>
      <point x="574.7561538461539" y="608.4615384615382" type="line" smooth="yes"/>
      <point x="560.5253846153845" y="637.5769230769229"/>
      <point x="536.4484615384616" y="702.7499999999999"/>
      <point x="528.6407692307693" y="733.1538461538462" type="qcurve"/>
      <point x="523.7753846153847" y="733.1538461538462" type="line"/>
      <point x="526.5446153846153" y="700.8076923076924"/>
      <point x="527.3523076923077" y="649.7692307692306"/>
      <point x="527.3523076923077" y="617.2307692307692" type="qcurve" smooth="yes"/>
      <point x="527.5830769230768" y="0.0" type="line"/>
    </contour>
  </outline>
</glyph>
<glyph name="O" format="2">
  <advance width="1673"/>
  <unicode hex="004F"/>
  <anchor x="755.0338461538462" y="1432.0" name="top"/>
  <outline>
    <contour>
      <point x="48.500000000000014" y="704.2692307692308" type="qcurve" smooth="yes"/>
      <point x="48.500000000000014" y="753.2692307692307" type="line" smooth="yes"/>
      <point x="48.500000000000014" y="1120.4615384615386"/>
      <point x="492.7207692307693" y="1479.0"/>
      <point x="836.6492307692308" y="1479.0" type="qcurve" smooth="yes"/>
      <point x="1180.2841651031897" y="1479.0"/>
      <point x="1624.9523076923078" y="1120.4615384615386"/>
      <point x="1624.9523076923078" y="753.2692307692307" type="qcurve" smooth="yes"/>
      <point x="1624.9523076923078" y="704.2692307692308" type="line" smooth="yes"/>
      <point x="1624.9523076923078" y="335.92307692307685"/>
      <point x="1180.2841651031897" y="-23.0"/>
      <point x="836.6492307692308" y="-23.0" type="qcurve" smooth="yes"/>
      <point x="493.6438461538462" y="-23.0"/>
      <point x="48.500000000000014" y="335.92307692307685"/>
    </contour>
    <contour>
      <point x="602.1107692307692" y="566.5769230769232" type="line" smooth="yes"/>
      <point x="602.1107692307692" y="444.4486243683325"/>
      <point x="724.6107692307693" y="321.96153846153845"/>
      <point x="836.8030769230769" y="321.5769230769231" type="qcurve" smooth="yes"/>
      <point x="948.7646153846154" y="321.19230769230774"/>
      <point x="1071.4184615384615" y="444.4486243683325"/>
      <point x="1071.4184615384615" y="566.3461538461539" type="qcurve" smooth="yes"/>
      <point x="1071.4184615384615" y="887.9615384615386" type="line" smooth="yes"/>
      <point x="1071.4184615384615" y="1006.8975294778215"/>
      <point x="948.7646153846154" y="1126.423076923077"/>
      <point x="836.8030769230769" y="1126.8076923076924" type="qcurve" smooth="yes"/>
      <point x="724.5338461538461" y="1127.1923076923078"/>
      <point x="602.1107692307692" y="1006.8975294778215"/>
      <point x="602.1107692307692" y="888.0384615384615" type="qcurve" smooth="yes"/>
    </contour>
  </outline>
</glyph>
<glyph name="P" format="2">
  <advance width="1560"/>
  <unicode hex="0050"/>
  <outline>
    <contour>
      <point x="82.69230769230771" y="0.0" type="line"/>
      <point x="82.69230769230771" y="1456.0" type="line"/>
      <point x="939.0938461538462" y="1456.0" type="line" smooth="yes"/>
      <point x="1221.288890948409" y="1456.0"/>
      <point x="1529.2646153846156" y="1154.7884615384617"/>
      <point x="1529.2646153846156" y="904.6923076923078" type="qcurve" smooth="yes"/>
      <point x="1529.2646153846156" y="657.6730769230769"/>
      <point x="1228.5965832561012" y="359.26923076923066"/>
      <point x="929.5938461538461" y="359.26923076923066" type="qcurve" smooth="yes"/>
      <point x="613.5553846153846" y="359.26923076923066" type="line"/>
      <point x="613.5553846153846" y="0.0" type="line"/>
    </contour>
    <contour>
      <point x="613.5553846153846" y="699.1538461538462" type="line"/>
      <point x="805.363076923077" y="699.1538461538462" type="line" smooth="yes"/>
      <point x="913.0596581196579" y="699.1538461538462"/>
      <point x="999.863076923077" y="811.9807692307693"/>
      <point x="999.863076923077" y="893.8076923076924" type="qcurve" smooth="yes"/>
      <point x="999.863076923077" y="979.7884615384615"/>
      <point x="913.059658119658" y="1090.1923076923078"/>
      <point x="805.363076923077" y="1090.1923076923078" type="qcurve" smooth="yes"/>
      <point x="613.5553846153846" y="1090.1923076923078" type="line"/>
    </contour>
  </outline>
</glyph>
<glyph name="Q" format="2">
  <advance width="1673"/>
  <unicode hex="0051"/>
  <outline>
    <contour>
      <point x="48.500000000000014" y="704.2692307692308" type="qcurve" smooth="yes"/>
      <point x="48.500000000000014" y="753.2692307692307" type="line" smooth="yes"/>
      <point x="48.500000000000014" y="1119.6923076923076"/>
      <point x="492.72076923076924" y="1479.0"/>
      <point x="836.6492307692308" y="1479.0" type="qcurve" smooth="yes"/>
      <point x="1180.3084615384614" y="1479.0"/>
      <point x="1624.9523076923078" y="1119.6923076923076"/>
      <point x="1624.9523076923078" y="753.2692307692307" type="qcurve" smooth="yes"/>
      <point x="1624.9523076923078" y="704.2692307692308" type="line" smooth="yes"/>
      <point x="1624.9523076923078" y="336.6923076923077"/>
      <point x="1180.3084615384614" y="-23.0"/>
      <point x="836.6492307692308" y="-23.0" type="qcurve" smooth="yes"/>
      <point x="493.64384615384614" y="-23.0"/>
      <point x="48.500000000000014" y="336.6923076923077"/>
    </contour>
    <contour>
      <point x="602.1107692307692" y="566.5769230769232" type="line" smooth="yes"/>
      <point x="602.1107692307692" y="445.1923076923077"/>
      <point x="724.6107692307693" y="321.96153846153845"/>
      <point x="836.8030769230769" y="321.57692307692304" type="qcurve" smooth="yes"/>
      <point x="948.7646153846152" y="321.1923076923077"/>
      <point x="1071.4184615384615" y="445.1923076923077"/>
      <point x="1071.4184615384615" y="566.3461538461539" type="qcurve" smooth="yes"/>
      <point x="1071.4184615384615" y="887.9615384615386" type="line" smooth="yes"/>
      <point x="1071.4184615384615" y="1006.1538461538462"/>
      <point x="948.7646153846152" y="1126.4230769230771"/>
      <point x="836.8030769230769" y="1126.8076923076924" type="qcurve" smooth="yes"/>
      <point x="724.5338461538462" y="1127.1923076923078"/>
      <point x="602.1107692307692" y="1006.1538461538462"/>
      <point x="602.1107692307692" y="888.0384615384615" type="qcurve" smooth="yes"/>
    </contour>
    <contour>
      <point x="1255.8846153846152" y="-262.8461538461538" type="line"/>
      <point x="785.3907692307691" y="124.11538461538461" type="line"/>
      <point x="1074.7815384615385" y="428.6923076923077" type="line"/>
      <point x="1549.7369230769232" y="44.884615384615344" type="line"/>
    </contour>
  </outline>
</glyph>
<glyph name="R" format="2">
  <advance width="1610"/>
  <unicode hex="0052"/>
  <outline>
    <contour>
      <point x="82.69230769230771" y="0.0" type="line"/>
      <point x="82.69230769230771" y="1456.0" type="line"/>
      <point x="915.0938461538461" y="1456.0" type="line" smooth="yes"/>
      <point x="1178.0023392181588" y="1456.0"/>
      <point x="1502.9953846153844" y="1183.8846153846157"/>
      <point x="1502.9953846153844" y="962.4230769230771" type="qcurve" smooth="yes"/>
      <point x="1502.9953846153844" y="733.3076923076922"/>
      <point x="1155.3573896595208" y="442.57692307692315"/>
      <point x="908.5169230769231" y="442.57692307692315" type="qcurve" smooth="yes"/>
      <point x="613.5553846153846" y="442.57692307692315" type="line"/>
      <point x="613.5553846153846" y="0.0" type="line"/>
    </contour>
    <contour>
      <point x="613.5553846153846" y="769.8076923076923" type="line"/>
      <point x="790.1323076923077" y="769.8076923076923" type="line" smooth="yes"/>
      <point x="887.3906237006235" y="769.8076923076923"/>
      <point x="966.8630769230767" y="861.8076923076923"/>
      <point x="966.8630769230767" y="931.7307692307693" type="qcurve" smooth="yes"/>
      <point x="966.8630769230767" y="1001.8076923076924"/>
      <point x="887.3137006237007" y="1098.8076923076922"/>
      <point x="790.1323076923077" y="1098.8076923076922" type="qcurve" smooth="yes"/>
      <point x="613.5553846153846" y="1098.8076923076922" type="line"/>
    </contour>
    <contour>
      <point x="1033.3200000000002" y="0.0" type="line"/>
      <point x="688.8584615384615" y="668.3461538461538" type="line"/>
      <point x="1228.646153846154" y="668.3461538461538" type="line"/>
      <point x="1618.7615384615385" y="0.0" type="line"/>
    </contour>
  </outline>
</glyph>
<glyph name="S" format="2">
  <advance width="1452"/>
  <unicode hex="0053"/>
  <outline>
    <contour>
      <point x="23.846153846153847" y="395.6923076923077" type="qcurve" smooth="yes"/>
      <point x="23.46153846153846" y="472.42307692307696" type="line"/>
      <point x="505.28615384615387" y="472.42307692307696" type="line"/>
      <point x="505.90153846153845" y="441.0" type="line" smooth="yes"/>
      <point x="506.4015384615384" y="374.71153846153857"/>
      <point x="618.6515384615386" y="311.40384615384613"/>
      <point x="725.6130769230768" y="311.40384615384613" type="qcurve" smooth="yes"/>
      <point x="825.8823076923078" y="311.40384615384613"/>
      <point x="929.4976923076924" y="360.86538461538464"/>
      <point x="929.4976923076924" y="404.34615384615387" type="qcurve" smooth="yes"/>
      <point x="929.4976923076924" y="449.3653846153846"/>
      <point x="831.2600000000001" y="495.2692307692308"/>
      <point x="590.1246153846154" y="549.8076923076923" type="qcurve" smooth="yes"/>
      <point x="298.5276923076923" y="620.6153846153846"/>
      <point x="40.35153846153848" y="822.0192307692307"/>
      <point x="40.35153846153848" y="1019.0" type="qcurve" smooth="yes"/>
      <point x="40.35153846153848" y="1235.3846153846155"/>
      <point x="404.2861538461538" y="1477.5384615384617"/>
      <point x="706.8823076923077" y="1477.5384615384617" type="qcurve" smooth="yes"/>
      <point x="1012.1376923076923" y="1477.5384615384617"/>
      <point x="1382.9376923076923" y="1260.4423076923076"/>
      <point x="1384.0915384615384" y="1070.6923076923078" type="qcurve" smooth="yes"/>
      <point x="1384.3992307692306" y="1007.6153846153846" type="line"/>
      <point x="910.5746153846155" y="1007.6153846153846" type="line"/>
      <point x="910.113076923077" y="1030.2692307692307" type="line" smooth="yes"/>
      <point x="909.3438461538461" y="1078.557692307692"/>
      <point x="813.9592307692309" y="1132.7499999999998"/>
      <point x="716.9592307692308" y="1132.7499999999998" type="qcurve" smooth="yes"/>
      <point x="621.1130769230768" y="1132.7499999999998"/>
      <point x="535.3438461538461" y="1091.5576923076922"/>
      <point x="535.3438461538461" y="1055.2692307692305" type="qcurve" smooth="yes"/>
      <point x="535.3438461538461" y="1020.3653846153845"/>
      <point x="626.9" y="987.1538461538462"/>
      <point x="893.7169230769231" y="931.5769230769232" type="qcurve" smooth="yes"/>
      <point x="1161.0338461538463" y="874.6538461538462"/>
      <point x="1422.0284615384612" y="666.9038461538461"/>
      <point x="1422.0284615384612" y="459.6923076923077" type="qcurve" smooth="yes"/>
      <point x="1422.0284615384612" y="231.84615384615384"/>
      <point x="1044.0292307692312" y="-22.923076923076923"/>
      <point x="733.1515384615384" y="-22.923076923076923" type="qcurve" smooth="yes"/>
      <point x="422.79461538461544" y="-22.923076923076923"/>
      <point x="24.69230769230769" y="191.78846153846158"/>
    </contour>
  </outline>
</glyph>
<glyph name="T" format="2">
  <advance width="1466"/>
  <unicode hex="0054"/>
  <outline>
    <contour>
      <point x="10.30769230769231" y="1053.230769230769" type="line"/>
      <point x="10.30769230769231" y="1456.0" type="line"/>
      <point x="1455.5553846153846" y="1456.0" type="line"/>
      <point x="1455.5553846153846" y="1053.230769230769" type="line"/>
      <point x="1002.670769230769" y="1053.230769230769" type="line"/>
      <point x="1002.670769230769" y="0.0" type="line"/>
      <point x="465.423076923077" y="0.0" type="line"/>
      <point x="465.423076923077" y="1053.230769230769" type="line"/>
    </contour>
  </outline>
</glyph>
<glyph name="U" format="2">
  <advance width="1581"/>
  <unicode hex="0055"/>
  <anchor x="715.8630769230768" y="1432.0" name="top"/>
  <outline>
    <contour>
      <point x="71.26923076923079" y="588.5384615384614" type="qcurve" smooth="yes"/>
      <point x="71.26923076923079" y="1456.0" type="line"/>
      <point x="599.7476923076923" y="1456.0" type="line"/>
      <point x="599.7476923076923" y="521.3076923076923" type="line" smooth="yes"/>
      <point x="599.7476923076923" y="414.23076923076917"/>
      <point x="698.1323076923078" y="323.8461538461538"/>
      <point x="785.0169230769231" y="323.8461538461538" type="qcurve" smooth="yes"/>
      <point x="870.7092307692305" y="323.8461538461538"/>
      <point x="967.3246153846155" y="414.2884615384616"/>
      <point x="967.3246153846155" y="521.3076923076923" type="qcurve" smooth="yes"/>
      <point x="967.3246153846155" y="1456.0" type="line"/>
      <point x="1498.9184615384613" y="1456.0" type="line"/>
      <point x="1498.9184615384613" y="588.5384615384614" type="line" smooth="yes"/>
      <point x="1498.9184615384613" y="279.37555079944605"/>
      <point x="1115.82" y="-23.0"/>
      <point x="792.7476923076923" y="-23.0" type="qcurve" smooth="yes"/>
      <point x="459.75230769230774" y="-23.0"/>
      <point x="71.26923076923079" y="278.52939695329223"/>
    </contour>
  </outline>
</glyph>
<glyph name="V" format="2">
  <advance width="1563"/>
  <unicode hex="0056"/>
  <outline>
    <contour>
      <point x="-43.846153846153825" y="1456.0" type="line"/>
      <point x="500.106923076923" y="1456.0" type="line"/>
      <point x="752.1761538461539" y="722.6538461538462" type="line" smooth="yes"/>
      <point x="762.7723076923075" y="695.75"/>
      <point x="786.33" y="639.1923076923076"/>
      <point x="797.253076923077" y="609.5384615384614" type="qcurve"/>
      <point x="800.6761538461539" y="609.5384615384614" type="line"/>
      <point x="811.4453846153847" y="639.6153846153846"/>
      <point x="835.1953846153848" y="697.4038461538461"/>
      <point x="845.0223076923078" y="722.6538461538462" type="qcurve" smooth="yes"/>
      <point x="1090.3715384615382" y="1456.0" type="line"/>
      <point x="1606.2684615384612" y="1456.0" type="line"/>
      <point x="1084.653076923077" y="-7.923076923076923" type="line"/>
      <point x="477.3076923076923" y="-7.923076923076923" type="line"/>
    </contour>
  </outline>
</glyph>
<glyph name="W" format="2">
  <advance width="2376"/>
  <unicode hex="0057"/>
  <outline>
    <contour>
      <point x="400.90923076923076" y="-1.3461538461538467" type="line"/>
      <point x="-9.23076923076923" y="1456.0" type="line"/>
      <point x="505.41846153846154" y="1456.0" type="line"/>
      <point x="716.8992307692307" y="689.6153846153848" type="line" smooth="yes"/>
      <point x="721.3223076923077" y="672.9999999999999"/>
      <point x="735.6299999999999" y="635.8269230769231"/>
      <point x="737.9184615384615" y="614.7692307692308" type="qcurve"/>
      <point x="741.0723076923077" y="614.7692307692308" type="line"/>
      <point x="743.4376923076924" y="634.5961538461539"/>
      <point x="758.13" y="672.9999999999999"/>
      <point x="761.8992307692307" y="689.6153846153848" type="qcurve" smooth="yes"/>
      <point x="966.6738461538461" y="1456.0" type="line"/>
      <point x="1452.3953846153847" y="1456.0" type="line"/>
      <point x="1678.040769230769" y="689.75" type="line" smooth="yes"/>
      <point x="1682.2330769230766" y="675.4423076923076"/>
      <point x="1692.386923076923" y="635.8076923076924"/>
      <point x="1695.329230769231" y="614.9038461538461" type="qcurve"/>
      <point x="1698.4830769230769" y="614.9038461538461" type="line"/>
      <point x="1700.6946153846156" y="635.0"/>
      <point x="1709.8869230769233" y="673.1346153846155"/>
      <point x="1714.3100000000002" y="689.75" type="qcurve" smooth="yes"/>
      <point x="1913.1369230769235" y="1456.0" type="line"/>
      <point x="2384.5076923076927" y="1456.0" type="line"/>
      <point x="1974.3676923076923" y="-1.3461538461538467" type="line"/>
      <point x="1439.3276923076924" y="-1.3461538461538467" type="line"/>
      <point x="1215.1961538461542" y="758.923076923077" type="line" smooth="yes"/>
      <point x="1210.5038461538463" y="774.1538461538463"/>
      <point x="1193.4461538461537" y="838.5961538461539"/>
      <point x="1191.3115384615385" y="858.4230769230771" type="qcurve"/>
      <point x="1187.5615384615385" y="858.4230769230771" type="line"/>
      <point x="1185.426923076923" y="838.5961538461539"/>
      <point x="1167.446153846154" y="774.8076923076925"/>
      <point x="1163.6769230769232" y="758.923076923077" type="qcurve" smooth="yes"/>
      <point x="949.833846153846" y="-1.3461538461538467" type="line"/>
    </contour>
  </outline>
</glyph>
<glyph name="X" format="2">
  <advance width="1547"/>
  <unicode hex="0058"/>
  <outline>
    <contour>
      <point x="-22.5" y="0.0" type="line"/>
      <point x="571.6923076923076" y="907.5384615384614" type="line"/>
      <point x="699.75" y="907.5384615384614" type="line"/>
      <point x="1055.1538461538462" y="1456.0" type="line"/>
      <point x="1544.0769230769233" y="1456.0" type="line"/>
      <point x="980.1153846153845" y="580.7307692307693" type="line"/>
      <point x="851.4615384615385" y="580.7307692307693" type="line"/>
      <point x="465.7307692307692" y="0.0" type="line"/>
    </contour>
    <contour>
      <point x="4.384615384615387" y="1456.0" type="line"/>
      <point x="603.8461538461539" y="1456.0" type="line"/>
      <point x="959.5576923076923" y="909.2307692307692" type="line"/>
      <point x="963.6923076923076" y="909.3076923076922" type="line"/>
      <point x="1555.4230769230767" y="0.0" type="line"/>
      <point x="955.096153846154" y="0.0" type="line"/>
      <point x="561.2307692307694" y="599.8076923076924" type="line"/>
      <point x="557.5" y="599.8846153846155" type="line"/>
    </contour>
  </outline>
</glyph>
<glyph name="Y" format="2">
  <advance width="1553"/>
  <unicode hex="0059"/>
  <anchor x="714.9192307692307" y="1432.0" name="top"/>
  <outline>
    <contour>
      <point x="507.7876923076923" y="0.0" type="line"/>
      <point x="507.7876923076923" y="531.7307692307693" type="line"/>
      <point x="-38.07692307692307" y="1456.0" type="line"/>
      <point x="543.7392307692309" y="1456.0" type="line"/>
      <point x="773.2961538461539" y="1085.7692307692307" type="line" smooth="yes"/>
      <point x="784.6807692307691" y="1067.1153846153848"/>
      <point x="803.8153846153848" y="1034.423076923077"/>
      <point x="812.1807692307693" y="1016.1153846153849" type="qcurve"/>
      <point x="815.1038461538461" y="1016.1153846153849" type="line"/>
      <point x="824.3346153846154" y="1034.423076923077"/>
      <point x="842.6038461538461" y="1067.1153846153848"/>
      <point x="853.1999999999999" y="1085.769230769231" type="qcurve" smooth="yes"/>
      <point x="1077.4215384615388" y="1456.0" type="line"/>
      <point x="1591.092307692308" y="1456.0" type="line"/>
      <point x="1045.0353846153846" y="531.7307692307693" type="line"/>
      <point x="1045.0353846153846" y="0.0" type="line"/>
    </contour>
  </outline>
</glyph>
<glyph name="Z" format="2">
  <advance width="1453"/>
  <unicode hex="005A"/>
  <outline>
    <contour>
      <point x="19.230769230769226" y="0.0" type="line"/>
      <point x="19.230769230769226" y="284.46153846153845" type="line"/>
      <point x="688.7230769230769" y="1053.230769230769" type="line"/>
      <point x="41.11538461538462" y="1053.230769230769" type="line"/>
      <point x="41.11538461538462" y="1456.0" type="line"/>
      <point x="1389.3507692307694" y="1456.0" type="line"/>
      <point x="1389.3507692307694" y="1156.923076923077" type="line"/>
      <point x="727.1661538461539" y="388.1538461538462" type="line"/>
      <point x="1433.8123076923077" y="388.1538461538462" type="line"/>
      <point x="1433.8123076923077" y="0.0" type="line"/>
    </contour>
  </outline>
</glyph>
<glyph name="bracketleft" format="2">
  <advance width="776"/>
  <unicode hex="005B"/>
  <outline>
    <contour>
      <point x="99.46153846153845" y="-310.0" type="line"/>
      <point x="99.46153846153845" y="1456.0" type="line"/>
      <point x="838.5538461538463" y="1456.0" type="line"/>
      <point x="838.5538461538463" y="1107.1153846153845" type="line"/>
      <point x="573.5730769230769" y="1107.1153846153845" type="line"/>
      <point x="573.5730769230769" y="38.88461538461537" type="line"/>
      <point x="838.5538461538463" y="38.88461538461537" type="line"/>
      <point x="838.5538461538463" y="-310.0" type="line"/>
    </contour>
  </outline>
</glyph>
<glyph name="backslash" format="2">
  <advance width="982"/>
  <unicode hex="005C"/>
  <outline>
    <contour>
      <point x="-37.23076923076924" y="1456.0" type="line"/>
      <point x="401.4230769230769" y="1456.0" type="line"/>
      <point x="1023.2692307692307" y="-125.0" type="line"/>
      <point x="584.6346153846154" y="-125.0" type="line"/>
    </contour>
  </outline>
</glyph>
<glyph name="bracketright" format="2">
  <advance width="776"/>
  <unicode hex="005D"/>
  <outline>
    <contour>
      <point x="676.4961538461538" y="-310.0" type="line"/>
      <point x="-63.44230769230769" y="-310.0" type="line"/>
      <point x="-63.44230769230769" y="38.88461538461537" type="line"/>
      <point x="201.46153846153848" y="38.88461538461537" type="line"/>
      <point x="201.46153846153848" y="1107.1153846153845" type="line"/>
      <point x="-63.44230769230769" y="1107.1153846153845" type="line"/>
      <point x="-63.44230769230769" y="1456.0" type="line"/>
      <point x="676.4961538461538" y="1456.0" type="line"/>
    </contour>
  </outline>
</glyph>
<glyph name="asciicircum" format="2">
  <advance width="1368"/>
  <unicode hex="005E"/>
  <outline>
    <contour>
      <point x="10.384615384615387" y="720.0" type="line"/>
      <point x="480.0" y="1456.0" type="line"/>
      <point x="888.7307692307693" y="1456.0" type="line"/>
      <point x="1358.3461538461543" y="720.0" type="line"/>
      <point x="921.1538461538462" y="720.0" type="line"/>
      <point x="684.0" y="1081.9038461538462" type="line"/>
      <point x="447.5769230769231" y="720.0" type="line"/>
    </contour>
  </outline>
</glyph>
<glyph name="underscore" format="2">
  <advance width="971"/>
  <unicode hex="005F"/>
  <outline>
    <contour>
      <point x="0.0" y="-264.26923076923083" type="line"/>
      <point x="0.0" y="80.61538461538463" type="line"/>
      <point x="971.6923076923077" y="80.61538461538463" type="line"/>
      <point x="971.6923076923077" y="-264.26923076923083" type="line"/>
    </contour>
  </outline>
</glyph>
<glyph name="grave" format="2">
  <advance width="1021"/>
  <unicode hex="0060"/>
  <anchor x="484.326923076923" y="951.2307692307689" name="_top"/>
  <outline>
    <contour>
      <point x="418.3846153846153" y="1057.4615384615383" type="line"/>
      <point x="76.46153846153844" y="1411.0769230769229" type="line"/>
      <point x="467.2307692307692" y="1546.9615384615383" type="line"/>
      <point x="750.2692307692308" y="1172.9999999999998" type="line"/>
    </contour>
  </outline>
</glyph>
<glyph name="a" format="2">
  <advance width="1481"/>
  <unicode hex="0061"/>
  <anchor x="662.7803846153844" y="958.3369230769232" name="top"/>
  <outline>
    <contour>
      <point x="24.230769230769226" y="281.89615384615377" type="qcurve" smooth="yes"/>
      <point x="24.230769230769226" y="430.21403556242757"/>
      <point x="315.986923076923" y="603.8307692307693"/>
      <point x="558.1623076923078" y="603.6" type="qcurve" smooth="yes"/>
      <point x="877.893076923077" y="603.2153846153846" type="line"/>
      <point x="877.893076923077" y="638.5676923076925" type="line" smooth="yes"/>
      <point x="877.893076923077" y="678.3946153846153"/>
      <point x="811.2442474916387" y="725.6830769230769"/>
      <point x="728.4507692307692" y="725.6830769230769" type="qcurve" smooth="yes"/>
      <point x="647.6091608391607" y="725.6830769230769"/>
      <point x="575.1430769230769" y="684.0505555555555"/>
      <point x="575.1430769230769" y="651.5138461538462" type="qcurve" smooth="yes"/>
      <point x="575.1430769230769" y="636.86" type="line"/>
      <point x="108.49307692307694" y="639.0523076923079" type="line"/>
      <point x="108.49307692307694" y="650.0523076923077" type="line" smooth="yes"/>
      <point x="108.49307692307694" y="803.4294181459566"/>
      <point x="461.3823076923076" y="987.6446153846153"/>
      <point x="767.4315384615384" y="987.6446153846153" type="qcurve" smooth="yes"/>
      <point x="1086.013846153846" y="987.6446153846153"/>
      <point x="1391.8823076923074" y="805.76"/>
      <point x="1391.8823076923074" y="615.9138461538462" type="qcurve" smooth="yes"/>
      <point x="1391.8823076923074" y="197.6153846153846" type="line" smooth="yes"/>
      <point x="1391.8823076923074" y="143.5769230769231"/>
      <point x="1414.709230769231" y="48.88461538461537"/>
      <point x="1437.7284615384615" y="13.076923076923077" type="qcurve"/>
      <point x="1437.7284615384615" y="0.0" type="line"/>
      <point x="927.4123076923078" y="0.0" type="line"/>
      <point x="909.9253342106111" y="23.888688643908818"/>
      <point x="889.9185655836213" y="81.74476657735495"/>
      <point x="886.7584615384615" y="116.77692307692307" type="qcurve"/>
      <point x="843.5052353507947" y="64.39628187688912"/>
      <point x="618.3413420285269" y="-14.884615384615383"/>
      <point x="448.45846153846145" y="-14.884615384615383" type="qcurve" smooth="yes"/>
      <point x="256.81920083807245" y="-14.884615384615383"/>
      <point x="24.230769230769226" y="136.3416083916084"/>
    </contour>
    <contour>
      <point x="529.9123076923078" y="318.43461538461537" type="qcurve" smooth="yes"/>
      <point x="529.9123076923078" y="280.5614182692307"/>
      <point x="601.576881489503" y="240.46153846153845"/>
      <point x="674.6200000000001" y="240.46153846153845" type="qcurve" smooth="yes"/>
      <point x="752.8577738654147" y="240.46153846153845"/>
      <point x="877.893076923077" y="307.98701720220714"/>
      <point x="877.893076923077" y="350.5461538461539" type="qcurve"/>
      <point x="877.893076923077" y="408.1" type="line"/>
      <point x="718.1430769230769" y="408.33076923076925" type="line" smooth="yes"/>
      <point x="623.996923076923" y="408.40769230769234"/>
      <point x="529.9123076923078" y="360.4962474244506"/>
    </contour>
  </outline>
</glyph>
<glyph name="b" format="2">
  <advance width="1492"/>
  <unicode hex="0062"/>
  <outline>
    <contour>
      <point x="58.384615384615415" y="0.0" type="line"/>
      <point x="58.384615384615415" y="1479.0" type="line"/>
      <point x="568.8738461538462" y="1479.0" type="line"/>
      <point x="568.8738461538462" y="834.3369230769229" type="line"/>
      <point x="627.2763920181656" y="902.6863669852066"/>
      <point x="813.5153846153846" y="986.4138461538462"/>
      <point x="948.3623076923076" y="986.4138461538462" type="qcurve" smooth="yes"/>
      <point x="1172.5555029585798" y="986.4138461538462"/>
      <point x="1458.6353846153845" y="713.2079114074782"/>
      <point x="1458.6353846153845" y="501.9761538461538" type="qcurve" smooth="yes"/>
      <point x="1458.6353846153845" y="471.51461538461547" type="line" smooth="yes"/>
      <point x="1458.6353846153845" y="259.26371552975326"/>
      <point x="1164.709349112426" y="-20.76923076923077"/>
      <point x="941.2853846153845" y="-20.76923076923077" type="qcurve" smooth="yes"/>
      <point x="806.9925155925158" y="-20.76923076923077"/>
      <point x="617.1790787087411" y="48.432176642490525"/>
      <point x="564.7776923076924" y="108.42307692307692" type="qcurve"/>
      <point x="565.3353846153846" y="108.42307692307692" type="line"/>
      <point x="562.5276923076924" y="0.0" type="line"/>
    </contour>
    <contour>
      <point x="569.1815384615385" y="402.3461538461538" type="line"/>
      <point x="591.2326769967359" y="365.3001028596292"/>
      <point x="685.053076923077" y="308.6923076923077"/>
      <point x="755.2007692307693" y="308.6923076923077" type="qcurve" smooth="yes"/>
      <point x="856.3988908765652" y="308.6923076923077"/>
      <point x="949.2584615384616" y="402.53284900284905"/>
      <point x="949.2584615384616" y="474.5915384615385" type="qcurve" smooth="yes"/>
      <point x="949.2584615384616" y="488.0915384615385" type="line" smooth="yes"/>
      <point x="949.2584615384616" y="559.7601183431954"/>
      <point x="856.3988908765652" y="649.6446153846153"/>
      <point x="754.4315384615385" y="649.6446153846153" type="qcurve" smooth="yes"/>
      <point x="686.1300000000001" y="649.6446153846153"/>
      <point x="591.2326769967359" y="593.1137432942169"/>
      <point x="569.1815384615385" y="556.3753846153846" type="qcurve"/>
    </contour>
  </outline>
</glyph>
<glyph name="c" format="2">
  <advance width="1369"/>
  <unicode hex="0063"/>
  <anchor x="639.8284615384616" y="0" name="bottom"/>
  <outline>
    <contour>
      <point x="32.5" y="467.24538461538464" type="qcurve" smooth="yes"/>
      <point x="32.5" y="499.09153846153845" type="line" smooth="yes"/>
      <point x="32.5" y="726.5519828799249"/>
      <point x="403.95384615384614" y="994.9523076923075"/>
      <point x="726.4923076923075" y="994.9523076923075" type="qcurve" smooth="yes"/>
      <point x="1031.3276923076924" y="994.9523076923075"/>
      <point x="1345.6384615384616" y="753.2003856092228"/>
      <point x="1355.753846153846" y="569.983076923077" type="qcurve" smooth="yes"/>
      <point x="1357.2923076923073" y="547.2138461538461" type="line"/>
      <point x="913.9153846153847" y="547.2138461538461" type="line"/>
      <point x="913.7615384615385" y="555.8676923076923" type="line" smooth="yes"/>
      <point x="913.3000000000002" y="597.298138238573"/>
      <point x="833.6732660781842" y="649.9138461538461"/>
      <point x="743.3769230769229" y="649.9138461538461" type="qcurve" smooth="yes"/>
      <point x="643.5304179838427" y="649.9138461538461"/>
      <point x="547.0307692307692" y="575.3920054630363"/>
      <point x="547.0307692307692" y="512.9376923076921" type="qcurve" smooth="yes"/>
      <point x="547.0307692307692" y="453.4761538461539" type="line" smooth="yes"/>
      <point x="547.0307692307692" y="384.8826823949247"/>
      <point x="642.2611872146118" y="307.30769230769226"/>
      <point x="743.2230769230769" y="307.30769230769226" type="qcurve" smooth="yes"/>
      <point x="833.6348045397226" y="307.30769230769226"/>
      <point x="914.4153846153845" y="358.4618617614269"/>
      <point x="914.7230769230767" y="393.6230769230769" type="qcurve" smooth="yes"/>
      <point x="914.8769230769229" y="404.5461538461539" type="line"/>
      <point x="1357.2923076923073" y="404.5461538461539" type="line"/>
      <point x="1356.484615384615" y="380.3153846153846" type="line" smooth="yes"/>
      <point x="1350.7538461538459" y="203.09807592923875"/>
      <point x="1037.2123076923078" y="-28.5"/>
      <point x="730.1461538461539" y="-28.5" type="qcurve" smooth="yes"/>
      <point x="407.7230769230769" y="-28.5"/>
      <point x="32.5" y="240.23937037037044"/>
    </contour>
  </outline>
</glyph>
<glyph name="d" format="2">
  <advance width="1493"/>
  <unicode hex="0064"/>
  <outline>
    <contour>
      <point x="32.5" y="465.0530769230769" type="qcurve" smooth="yes"/>
      <point x="32.5" y="495.8992307692307" type="line" smooth="yes"/>
      <point x="32.5" y="706.5925267920934"/>
      <point x="306.9115384615385" y="979.1061538461539"/>
      <point x="537.7730769230769" y="979.0292307692308" type="qcurve" smooth="yes"/>
      <point x="680.6776923076923" y="979.1061538461539"/>
      <point x="878.9592307692308" y="899.8753846153846"/>
      <point x="934.0307692307692" y="836.9138461538463" type="qcurve"/>
      <point x="934.0307692307692" y="1479.0" type="line"/>
      <point x="1434.4815384615385" y="1479.0" type="line"/>
      <point x="1434.4815384615385" y="0.0" type="line"/>
      <point x="940.6461538461538" y="0.0" type="line"/>
      <point x="936.9153846153846" y="142.96153846153845" type="line"/>
      <point x="936.473076923077" y="142.96153846153845" type="line"/>
      <point x="883.9469230769231" y="75.03846153846155"/>
      <point x="679.4084615384614" y="-20.692307692307693"/>
      <point x="537.5423076923075" y="-20.692307692307693" type="qcurve" smooth="yes"/>
      <point x="303.79615384615386" y="-20.692307692307693"/>
      <point x="32.5" y="252.8021770682148"/>
    </contour>
    <contour>
      <point x="541.0307692307692" y="471.7838461538462" type="line" smooth="yes"/>
      <point x="541.0307692307692" y="399.2636182336182"/>
      <point x="635.9923076923076" y="307.9615384615384"/>
      <point x="736.203846153846" y="307.9615384615384" type="qcurve" smooth="yes"/>
      <point x="805.6269230769228" y="307.9615384615384"/>
      <point x="902.646153846154" y="365.67307692307685"/>
      <point x="922.6846153846154" y="402.3461538461538" type="qcurve"/>
      <point x="922.6846153846154" y="555.6061538461537" type="line"/>
      <point x="901.9538461538463" y="592.586923076923"/>
      <point x="805.4730769230767" y="650.3753846153845"/>
      <point x="736.4346153846152" y="650.3753846153845" type="qcurve" smooth="yes"/>
      <point x="635.4538461538461" y="650.3753846153845"/>
      <point x="541.0307692307692" y="556.7601183431951"/>
      <point x="541.0307692307692" y="485.93769230769226" type="qcurve" smooth="yes"/>
    </contour>
  </outline>
</glyph>
<glyph name="e" format="2">
  <advance width="1441"/>
  <unicode hex="0065"/>
  <anchor x="650.2142307692308" y="958.5442307692309" name="top"/>
  <outline>
    <contour>
      <point x="32.5" y="468.6300000000001" type="qcurve" smooth="yes"/>
      <point x="32.5" y="499.01461538461535" type="line" smooth="yes"/>
      <point x="32.5" y="725.975059803002"/>
      <point x="416.03615384615387" y="993.490769230769"/>
      <point x="742.3846153846155" y="993.490769230769" type="qcurve" smooth="yes"/>
      <point x="1060.96" y="993.490769230769"/>
      <point x="1407.0" y="729.224055944056"/>
      <point x="1407.0" y="510.2453846153846" type="qcurve" smooth="yes"/>
      <point x="1407.0" y="433.20692307692315" type="line"/>
      <point x="335.0192307692307" y="433.20692307692315" type="line"/>
      <point x="335.0192307692307" y="549.553076923077" type="line"/>
      <point x="915.1346153846154" y="549.553076923077" type="line"/>
      <point x="914.2115384615383" y="528.6684615384615" type="line"/>
      <point x="915.1346153846154" y="592.7588888888889"/>
      <point x="844.8732793522267" y="665.2600000000001"/>
      <point x="730.0384615384615" y="665.2600000000001" type="qcurve" smooth="yes"/>
      <point x="640.6413598250091" y="665.2600000000001"/>
      <point x="541.5576923076923" y="585.095811965812"/>
      <point x="541.5576923076923" y="509.8992307692307" type="qcurve" smooth="yes"/>
      <point x="541.5576923076923" y="465.3223076923077" type="line" smooth="yes"/>
      <point x="541.5576923076923" y="384.94810666137994"/>
      <point x="648.5827830967316" y="301.46153846153845"/>
      <point x="754.6923076923078" y="301.46153846153845" type="qcurve" smooth="yes"/>
      <point x="834.5103594536305" y="301.46153846153845"/>
      <point x="935.8815384615385" y="349.4615384615385"/>
      <point x="962.8884615384615" y="384.653846153846" type="qcurve"/>
      <point x="1392.9461538461537" y="291.1923076923077" type="line"/>
      <point x="1332.1615384615384" y="133.5384615384615"/>
      <point x="1025.516153846154" y="-28.576923076923077"/>
      <point x="756.9615384615385" y="-28.576923076923077" type="qcurve" smooth="yes"/>
      <point x="411.5784615384615" y="-28.576923076923077"/>
      <point x="32.5" y="237.4701396011396"/>
    </contour>
  </outline>
</glyph>
<glyph name="f" format="2">
  <advance width="923"/>
  <unicode hex="0066"/>
  <outline>
    <contour>
      <point x="188.34615384615384" y="0.0" type="line"/>
      <point x="188.34615384615384" y="1043.8076923076924" type="line" smooth="yes"/>
      <point x="188.34615384615384" y="1266.7115384615386"/>
      <point x="513.1855960070465" y="1499.0"/>
      <point x="795.5276923076923" y="1499.0" type="qcurve" smooth="yes"/>
      <point x="849.5853846153847" y="1499.0"/>
      <point x="941.1430769230768" y="1488.8076923076922"/>
      <point x="991.066153846154" y="1480.076923076923" type="qcurve"/>
      <point x="977.2392307692307" y="1128.9615384615386" type="line"/>
      <point x="954.8930769230767" y="1131.5"/>
      <point x="908.2199999999998" y="1136.769230769231"/>
      <point x="873.4892307692307" y="1136.769230769231" type="qcurve" smooth="yes"/>
      <point x="784.1256447149972" y="1136.769230769231"/>
      <point x="687.1815384615385" y="1054.8461538461538"/>
      <point x="687.1815384615385" y="967.0769230769231" type="qcurve" smooth="yes"/>
      <point x="687.1815384615385" y="877.5869230769231" type="line"/>
      <point x="694.4892307692307" y="865.0869230769231" type="line"/>
      <point x="694.4892307692307" y="0.0" type="line"/>
    </contour>
    <contour>
      <point x="9.653846153846155" y="610.7600000000002" type="line"/>
      <point x="9.653846153846155" y="958.3369230769232" type="line"/>
      <point x="279.0907692307693" y="958.3369230769232" type="line"/>
      <point x="312.24461538461543" y="958.3369230769232" type="line"/>
      <point x="920.4892307692306" y="958.3369230769232" type="line"/>
      <point x="920.4892307692306" y="610.7600000000002" type="line"/>
    </contour>
  </outline>
</glyph>
<glyph name="g" format="2">
  <advance width="1492"/>
  <unicode hex="0067"/>
  <outline>
    <contour>
      <point x="93.73846153846151" y="-349.7692307692308" type="qcurve"/>
      <point x="151.5476923076923" y="-18.8846153846154" type="line"/>
      <point x="211.4910583567892" y="-55.99876850944346"/>
      <point x="486.0200854700855" y="-127.3846153846154"/>
      <point x="609.9576923076922" y="-127.3846153846154" type="qcurve" smooth="yes"/>
      <point x="731.6500712250713" y="-127.3846153846154"/>
      <point x="929.2615384615385" y="-54.09615384615385"/>
      <point x="929.2615384615385" y="44.076923076923094" type="qcurve" smooth="yes"/>
      <point x="929.2615384615385" y="136.1153846153846" type="line"/>
      <point x="872.0361538461539" y="68.92307692307692"/>
      <point x="695.2161538461539" y="-15.538461538461537"/>
      <point x="533.9269230769232" y="-15.538461538461537" type="qcurve" smooth="yes"/>
      <point x="310.1807692307692" y="-15.538461538461537"/>
      <point x="32.5" y="252.7252539912917"/>
      <point x="32.5" y="464.9761538461538" type="qcurve" smooth="yes"/>
      <point x="32.5" y="495.43769230769226" type="line" smooth="yes"/>
      <point x="32.5" y="706.7463729459396"/>
      <point x="295.1807692307692" y="979.1061538461539"/>
      <point x="526.9653846153847" y="979.1061538461539" type="qcurve" smooth="yes"/>
      <point x="661.0623076923076" y="979.1061538461539"/>
      <point x="869.9084615384616" y="888.5292307692307"/>
      <point x="920.7807692307692" y="821.5676923076924" type="qcurve"/>
      <point x="923.3384615384614" y="821.5676923076924" type="line"/>
      <point x="926.9923076923076" y="958.3369230769232" type="line"/>
      <point x="1433.673846153846" y="958.3369230769232" type="line"/>
      <point x="1433.673846153846" y="142.9230769230769" type="line" smooth="yes"/>
      <point x="1433.673846153846" y="-142.71153846153845"/>
      <point x="1046.8284615384616" y="-450.2307692307693"/>
      <point x="719.5884615384615" y="-450.2307692307693" type="qcurve" smooth="yes"/>
      <point x="523.0038461538461" y="-450.2307692307693"/>
      <point x="199.75846153846152" y="-388.76923076923083"/>
    </contour>
    <contour>
      <point x="541.0307692307692" y="471.7838461538462" type="line" smooth="yes"/>
      <point x="541.0307692307692" y="399.1866951566951"/>
      <point x="635.7615384615384" y="307.3461538461538"/>
      <point x="736.2038461538461" y="307.3461538461538" type="qcurve" smooth="yes"/>
      <point x="806.780769230769" y="307.3461538461538"/>
      <point x="902.7230769230769" y="365.13461538461536"/>
      <point x="922.6846153846154" y="401.7307692307693" type="qcurve"/>
      <point x="922.6846153846154" y="556.3753846153846" type="line"/>
      <point x="902.0307692307695" y="593.3561538461539"/>
      <point x="805.4730769230767" y="650.3753846153845"/>
      <point x="736.4346153846152" y="650.3753846153845" type="qcurve" smooth="yes"/>
      <point x="635.4538461538461" y="650.3753846153845"/>
      <point x="541.0307692307692" y="556.7601183431951"/>
      <point x="541.0307692307692" y="485.93769230769226" type="qcurve" smooth="yes"/>
    </contour>
  </outline>
</glyph>
<glyph name="h" format="2">
  <advance width="1455"/>
  <unicode hex="0068"/>
  <outline>
    <contour>
      <point x="58.384615384615415" y="0.0" type="line"/>
      <point x="58.384615384615415" y="1477.3846153846152" type="line"/>
      <point x="569.9892307692309" y="1477.3846153846152" type="line"/>
      <point x="570.6430769230769" y="805.0292307692306" type="line"/>
      <point x="621.8876923076923" y="887.6830769230771"/>
      <point x="823.4523076923077" y="985.9138461538462"/>
      <point x="977.0546153846153" y="985.9138461538462" type="qcurve" smooth="yes"/>
      <point x="1169.3376923076924" y="985.9138461538462"/>
      <point x="1404.4784615384613" y="787.6830769230769"/>
      <point x="1404.4784615384613" y="566.9138461538462" type="qcurve" smooth="yes"/>
      <point x="1404.4784615384613" y="0.0" type="line"/>
      <point x="890.6430769230769" y="0.0" type="line"/>
      <point x="890.6430769230769" y="479.45230769230767" type="line" smooth="yes"/>
      <point x="890.6430769230769" y="556.1830769230768"/>
      <point x="816.623846153846" y="625.7600000000001"/>
      <point x="748.5853846153847" y="625.7600000000001" type="qcurve" smooth="yes"/>
      <point x="686.9507692307692" y="625.7600000000001"/>
      <point x="599.3930769230768" y="564.8946153846153"/>
      <point x="571.3738461538461" y="517.8369230769231" type="qcurve"/>
      <point x="571.3738461538461" y="0.0" type="line"/>
    </contour>
  </outline>
</glyph>
<glyph name="i" format="2">
  <advance width="644"/>
  <unicode hex="0069"/>
  <outline>
    <contour>
      <point x="60.80769230769233" y="0.0" type="line"/>
      <point x="60.80769230769233" y="958.3369230769232" type="line"/>
      <point x="583.22" y="958.3369230769232" type="line"/>
      <point x="583.22" y="0.0" type="line"/>
    </contour>
    <contour>
      <point x="47.8076923076923" y="1252.6153846153848" type="qcurve" smooth="yes"/>
      <point x="47.8076923076923" y="1353.807692307692"/>
      <point x="190.87214137214136" y="1492.5384615384614"/>
      <point x="323.3076923076923" y="1492.5384615384614" type="qcurve" smooth="yes"/>
      <point x="455.1663201663202" y="1492.5384615384614"/>
      <point x="595.3076923076923" y="1355.6538461538457"/>
      <point x="595.3076923076923" y="1252.5384615384617" type="qcurve" smooth="yes"/>
      <point x="595.3076923076923" y="1151.2307692307688"/>
      <point x="451.512474012474" y="1009.6153846153846"/>
      <point x="320.6538461538462" y="1009.6153846153846" type="qcurve" smooth="yes"/>
      <point x="188.8721413721414" y="1009.6153846153846"/>
      <point x="47.8076923076923" y="1151.2307692307688"/>
    </contour>
  </outline>
</glyph>
<glyph name="j" format="2">
  <advance width="677"/>
  <unicode hex="006A"/>
  <outline>
    <contour>
      <point x="-232.1730769230769" y="-415.4230769230769" type="qcurve"/>
      <point x="-241.67307692307696" y="-62.57692307692311" type="line"/>
      <point x="-217.2307692307692" y="-67.07692307692312"/>
      <point x="-134.6730769230769" y="-82.50000000000003"/>
      <point x="-68.48076923076923" y="-82.50000000000003" type="qcurve" smooth="yes"/>
      <point x="20.538461538461544" y="-82.50000000000003"/>
      <point x="95.65384615384619" y="-11.73076923076925"/>
      <point x="95.65384615384619" y="98.65384615384613" type="qcurve" smooth="yes"/>
      <point x="95.65384615384619" y="958.3369230769232" type="line"/>
      <point x="614.4123076923076" y="958.3369230769232" type="line"/>
      <point x="614.4123076923076" y="21.576923076923073" type="line" smooth="yes"/>
      <point x="614.4123076923076" y="-218.76923076923077"/>
      <point x="321.74343001261036" y="-438.9230769230769"/>
      <point x="32.25384615384615" y="-438.9230769230769" type="qcurve" smooth="yes"/>
      <point x="-42.27570356472794" y="-438.9230769230769"/>
      <point x="-189.11272986028575" y="-422.78546903606355"/>
    </contour>
    <contour>
      <point x="81.5769230769231" y="1252.5384615384617" type="qcurve" smooth="yes"/>
      <point x="81.5769230769231" y="1353.5384615384614"/>
      <point x="224.64137214137213" y="1492.5384615384614"/>
      <point x="357.15384615384613" y="1492.5384615384614" type="qcurve" smooth="yes"/>
      <point x="488.93555093555096" y="1492.5384615384614"/>
      <point x="629.0769230769231" y="1355.6538461538457"/>
      <point x="629.0769230769231" y="1252.5384615384617" type="qcurve" smooth="yes"/>
      <point x="629.0769230769231" y="1151.2307692307688"/>
      <point x="485.2817047817048" y="1009.6153846153846"/>
      <point x="354.4230769230769" y="1009.6153846153846" type="qcurve" smooth="yes"/>
      <point x="222.64137214137213" y="1009.6153846153846"/>
      <point x="81.5769230769231" y="1151.2307692307688"/>
    </contour>
  </outline>
</glyph>
<glyph name="k" format="2">
  <advance width="1533"/>
  <unicode hex="006B"/>
  <outline>
    <contour>
      <point x="58.384615384615415" y="0.0" type="line"/>
      <point x="58.384615384615415" y="1479.0" type="line"/>
      <point x="571.22" y="1479.0" type="line"/>
      <point x="571.22" y="699.5607692307691" type="line"/>
      <point x="876.4615384615385" y="958.4230769230769" type="line"/>
      <point x="1490.3461538461538" y="958.4230769230769" type="line"/>
      <point x="571.22" y="165.57230769230776" type="line"/>
      <point x="571.22" y="0.0" type="line"/>
    </contour>
    <contour>
      <point x="940.3846153846155" y="0.0" type="line"/>
      <point x="588.5603846153845" y="410.40192307692314" type="line"/>
      <point x="917.5965384615383" y="739.0530769230768" type="line"/>
      <point x="1558.0853846153848" y="0.0" type="line"/>
    </contour>
  </outline>
</glyph>
<glyph name="l" format="2">
  <advance width="639"/>
  <unicode hex="006C"/>
  <outline>
    <contour>
      <point x="60.53846153846156" y="0.0" type="line"/>
      <point x="60.53846153846156" y="1479.0" type="line"/>
      <point x="578.4892307692306" y="1479.0" type="line"/>
      <point x="578.4892307692306" y="0.0" type="line"/>
    </contour>
  </outline>
</glyph>
<glyph name="m" format="2">
  <advance width="2268"/>
  <unicode hex="006D"/>
  <outline>
    <contour>
      <point x="58.384615384615415" y="-0.7307692307692307" type="line"/>
      <point x="58.384615384615415" y="957.6061538461539" type="line"/>
      <point x="562.143076923077" y="957.6061538461539" type="line"/>
      <point x="564.9507692307692" y="797.2984615384617" type="line"/>
      <point x="566.5853846153846" y="797.2984615384617" type="line"/>
      <point x="632.7792307692307" y="890.0484615384613"/>
      <point x="839.0292307692307" y="983.7215384615387"/>
      <point x="978.746923076923" y="983.7215384615387" type="qcurve" smooth="yes"/>
      <point x="1111.1746153846154" y="983.7215384615387"/>
      <point x="1302.8446153846155" y="886.1446153846153"/>
      <point x="1340.976923076923" y="793.1830769230768" type="qcurve"/>
      <point x="1341.3476923076923" y="793.1830769230768" type="line"/>
      <point x="1416.5846153846153" y="885.7984615384615"/>
      <point x="1655.2715384615383" y="985.1830769230771"/>
      <point x="1803.3438461538465" y="985.1830769230771" type="qcurve" smooth="yes"/>
      <point x="1990.5576923076924" y="985.1830769230771"/>
      <point x="2219.0446153846156" y="792.51"/>
      <point x="2219.0446153846156" y="570.5676923076923" type="qcurve" smooth="yes"/>
      <point x="2219.0446153846156" y="-0.7307692307692307" type="line"/>
      <point x="1705.593846153846" y="-0.7307692307692307" type="line"/>
      <point x="1705.593846153846" y="480.29846153846154" type="line" smooth="yes"/>
      <point x="1703.4784615384613" y="557.4138461538461"/>
      <point x="1633.1515384615382" y="625.8369230769232"/>
      <point x="1564.19" y="625.8369230769232" type="qcurve" smooth="yes"/>
      <point x="1504.593846153846" y="625.8369230769232"/>
      <point x="1421.6515384615386" y="564.3946153846152"/>
      <point x="1395.6323076923077" y="519.6446153846153" type="qcurve"/>
      <point x="1395.6323076923077" y="-0.7307692307692307" type="line"/>
      <point x="880.3353846153846" y="-0.7307692307692307" type="line"/>
      <point x="880.3353846153846" y="479.9907692307693" type="line" smooth="yes"/>
      <point x="879.1430769230769" y="556.7984615384615"/>
      <point x="807.3930769230769" y="625.8369230769232"/>
      <point x="739.1623076923076" y="625.8369230769232" type="qcurve" smooth="yes"/>
      <point x="681.5661538461538" y="625.8369230769232"/>
      <point x="596.97" y="563.51"/>
      <point x="571.3738461538461" y="518.1446153846155" type="qcurve"/>
      <point x="571.3738461538461" y="-0.7307692307692307" type="line"/>
    </contour>
  </outline>
</glyph>
<glyph name="n" format="2">
  <advance width="1455"/>
  <unicode hex="006E"/>
  <anchor x="657.7357692307693" y="958.3369230769232" name="top"/>
  <outline>
    <contour>
      <point x="58.384615384615415" y="0.0" type="line"/>
      <point x="58.384615384615415" y="958.3369230769232" type="line"/>
      <point x="566.5276923076923" y="958.3369230769232" type="line"/>
      <point x="569.3353846153847" y="807.5676923076924" type="line"/>
      <point x="568.7776923076923" y="807.5676923076924" type="line"/>
      <point x="621.6053853165652" y="890.9524242864594"/>
      <point x="823.0393522267207" y="985.9138461538463"/>
      <point x="977.0546153846153" y="985.9138461538463" type="qcurve" smooth="yes"/>
      <point x="1169.313073929961" y="985.9138461538463"/>
      <point x="1404.4784615384613" y="787.6584145625368"/>
      <point x="1404.4784615384613" y="566.9138461538461" type="qcurve" smooth="yes"/>
      <point x="1404.4784615384613" y="0.0" type="line"/>
      <point x="890.566153846154" y="0.0" type="line"/>
      <point x="890.566153846154" y="479.45230769230767" type="line" smooth="yes"/>
      <point x="890.566153846154" y="556.0177741407529"/>
      <point x="816.4883946488294" y="625.7600000000001"/>
      <point x="748.5853846153847" y="625.7600000000001" type="qcurve" smooth="yes"/>
      <point x="687.9182553528943" y="625.7600000000001"/>
      <point x="599.3788410818661" y="564.860584389616"/>
      <point x="571.3738461538461" y="517.8369230769231" type="qcurve"/>
      <point x="571.3738461538461" y="0.0" type="line"/>
    </contour>
  </outline>
</glyph>
<glyph name="o" format="2">
  <advance width="1504"/>
  <unicode hex="006F"/>
  <anchor x="658.7092307692308" y="958.3369230769232" name="top"/>
  <outline>
    <contour>
      <point x="32.5" y="467.1684615384616" type="qcurve" smooth="yes"/>
      <point x="32.5" y="498.2838461538461" type="line" smooth="yes"/>
      <point x="32.5" y="718.6673674953095"/>
      <point x="425.02538461538455" y="994.9523076923075"/>
      <point x="751.9730769230769" y="994.9523076923075" type="qcurve" smooth="yes"/>
      <point x="1079.7284615384615" y="994.9523076923075"/>
      <point x="1471.5230769230768" y="718.6673674953095"/>
      <point x="1471.5230769230768" y="498.2838461538461" type="qcurve" smooth="yes"/>
      <point x="1471.5230769230768" y="467.1684615384616" type="line" smooth="yes"/>
      <point x="1471.5230769230768" y="245.50860113960113"/>
      <point x="1079.6515384615384" y="-28.576923076923077"/>
      <point x="751.9730769230769" y="-28.576923076923077" type="qcurve" smooth="yes"/>
      <point x="424.2946153846154" y="-28.576923076923077"/>
      <point x="32.5" y="245.50860113960113"/>
    </contour>
    <contour>
      <point x="547.2615384615384" y="512.9376923076923" type="qcurve" smooth="yes"/>
      <point x="547.2615384615384" y="454.13" type="line" smooth="yes"/>
      <point x="547.2615384615384" y="391.6211835844568"/>
      <point x="649.3192307692309" y="309.5"/>
      <point x="749.1269230769232" y="309.5" type="qcurve" smooth="yes"/>
      <point x="849.0115384615384" y="309.5"/>
      <point x="950.9153846153846" y="391.6981066613798"/>
      <point x="950.9153846153846" y="454.2069230769231" type="qcurve" smooth="yes"/>
      <point x="950.9153846153846" y="512.9376923076923" type="line" smooth="yes"/>
      <point x="950.9153846153846" y="573.1535042735043"/>
      <point x="849.0115384615384" y="652.3369230769231"/>
      <point x="749.1269230769232" y="652.3369230769231" type="qcurve" smooth="yes"/>
      <point x="649.3192307692309" y="652.3369230769231"/>
      <point x="547.2615384615384" y="573.0765811965811"/>
    </contour>
  </outline>
</glyph>
<glyph name="p" format="2">
  <advance width="1491"/>
  <unicode hex="0070"/>
  <outline>
    <contour>
      <point x="58.384615384615415" y="-413.84615384615387" type="line"/>
      <point x="58.384615384615415" y="958.3369230769232" type="line"/>
      <point x="559.9507692307693" y="958.3369230769232" type="line"/>
      <point x="562.7584615384616" y="844.9907692307692" type="line"/>
      <point x="564.3161538461538" y="845.7215384615383" type="line"/>
      <point x="614.4961538461539" y="904.4907692307694"/>
      <point x="809.726923076923" y="987.1446153846155"/>
      <point x="946.9007692307691" y="987.1446153846155" type="qcurve" smooth="yes"/>
      <point x="1177.1084615384614" y="987.1446153846155"/>
      <point x="1457.1738461538462" y="731.1694498690164"/>
      <point x="1457.1738461538462" y="498.7069230769231" type="qcurve" smooth="yes"/>
      <point x="1457.1738461538462" y="468.2453846153846" type="line" smooth="yes"/>
      <point x="1457.1738461538462" y="246.9175616835994"/>
      <point x="1167.7238461538461" y="-20.76923076923077"/>
      <point x="939.9007692307692" y="-20.76923076923077" type="qcurve" smooth="yes"/>
      <point x="802.6884615384615" y="-20.76923076923077"/>
      <point x="627.4838461538462" y="45.269230769230774"/>
      <point x="569.2584615384616" y="95.8076923076923" type="qcurve"/>
      <point x="569.1046153846155" y="-413.84615384615387" type="line"/>
    </contour>
    <contour>
      <point x="569.1815384615385" y="401.61538461538464" type="line"/>
      <point x="589.22" y="364.78846153846155"/>
      <point x="684.4315384615385" y="307.9615384615384"/>
      <point x="753.1238461538462" y="307.9615384615384" type="qcurve" smooth="yes"/>
      <point x="852.9507692307692" y="307.9615384615384"/>
      <point x="948.5276923076924" y="388.4943874643875"/>
      <point x="948.5276923076924" y="452.05307692307684" type="qcurve" smooth="yes"/>
      <point x="948.5276923076924" y="509.1684615384616" type="line" smooth="yes"/>
      <point x="948.5276923076924" y="576.0293491124261"/>
      <point x="852.2969230769229" y="650.3753846153845"/>
      <point x="755.893076923077" y="650.3753846153845" type="qcurve" smooth="yes"/>
      <point x="684.7007692307693" y="650.3753846153845"/>
      <point x="589.0661538461538" y="594.7407692307693"/>
      <point x="569.1815384615385" y="557.1061538461538" type="qcurve"/>
    </contour>
  </outline>
</glyph>
<glyph name="q" format="2">
  <advance width="1493"/>
  <unicode hex="0071"/>
  <outline>
    <contour>
      <point x="32.5" y="464.96153846153845" type="qcurve" smooth="yes"/>
      <point x="32.5" y="495.8076923076922" type="line" smooth="yes"/>
      <point x="32.5" y="706.5769230769231"/>
      <point x="306.8846153846154" y="979.1923076923076"/>
      <point x="537.6923076923076" y="979.1153846153845" type="qcurve" smooth="yes"/>
      <point x="691.769230769231" y="979.1923076923076"/>
      <point x="891.923076923077" y="892.2692307692306"/>
      <point x="938.4230769230768" y="834.8846153846154" type="qcurve"/>
      <point x="937.7692307692308" y="834.8846153846154" type="line"/>
      <point x="941.5" y="958.4230769230769" type="line"/>
      <point x="1434.3846153846152" y="958.4230769230769" type="line"/>
      <point x="1434.3846153846152" y="-415.3076923076923" type="line"/>
      <point x="932.9615384615385" y="-415.3076923076923" type="line"/>
      <point x="932.8076923076924" y="140.46153846153848" type="line"/>
      <point x="935.7307692307693" y="140.46153846153848" type="line"/>
      <point x="878.0" y="72.46153846153845"/>
      <point x="680.1923076923078" y="-20.692307692307693"/>
      <point x="538.2307692307693" y="-20.692307692307693" type="qcurve" smooth="yes"/>
      <point x="304.2307692307692" y="-20.692307692307693"/>
      <point x="32.5" y="252.92307692307696"/>
    </contour>
    <contour>
      <point x="541.0307692307692" y="471.7838461538462" type="line" smooth="yes"/>
      <point x="541.0307692307692" y="399.18669515669524"/>
      <point x="635.7615384615383" y="307.9615384615384"/>
      <point x="736.203846153846" y="307.9615384615384" type="qcurve" smooth="yes"/>
      <point x="806.7038461538459" y="307.9615384615384"/>
      <point x="902.8000000000001" y="365.74999999999994"/>
      <point x="922.7615384615384" y="402.3461538461538" type="qcurve"/>
      <point x="922.7615384615384" y="555.6061538461537" type="line"/>
      <point x="902.1076923076922" y="592.5869230769231"/>
      <point x="805.4730769230767" y="650.3753846153845"/>
      <point x="736.4346153846152" y="650.3753846153845" type="qcurve" smooth="yes"/>
      <point x="635.453846153846" y="650.3753846153845"/>
      <point x="541.0307692307692" y="556.9908875739644"/>
      <point x="541.0307692307692" y="486.1684615384615" type="qcurve" smooth="yes"/>
    </contour>
  </outline>
</glyph>
<glyph name="r" format="2">
  <advance width="1028"/>
  <unicode hex="0072"/>
  <outline>
    <contour>
      <point x="58.384615384615415" y="0.0" type="line"/>
      <point x="58.384615384615415" y="958.3369230769232" type="line"/>
      <point x="576.6815384615386" y="958.3369230769232" type="line"/>
      <point x="579.4892307692307" y="808.2215384615384" type="line"/>
      <point x="579.0084615384615" y="808.2215384615384" type="line"/>
      <point x="630.3371236706047" y="879.7804584998436"/>
      <point x="794.2776923076923" y="976.1830769230769"/>
      <point x="894.7776923076922" y="976.1830769230769" type="qcurve" smooth="yes"/>
      <point x="940.4700000000001" y="976.1830769230769"/>
      <point x="1006.4700000000001" y="965.836923076923"/>
      <point x="1019.3738461538463" y="961.1446153846153" type="qcurve"/>
      <point x="1019.3738461538463" y="599.5292307692308" type="line"/>
      <point x="995.3546153846153" y="609.3369230769231"/>
      <point x="929.7776923076923" y="617.9907692307693"/>
      <point x="887.143076923077" y="617.9907692307693" type="qcurve" smooth="yes"/>
      <point x="793.2717751479289" y="617.9907692307693"/>
      <point x="629.5353243749761" y="528.7909299452924"/>
      <point x="583.7200000000001" y="456.72153846153856" type="qcurve"/>
      <point x="583.7200000000001" y="0.0" type="line"/>
    </contour>
  </outline>
</glyph>
<glyph name="s" format="2">
  <advance width="1350"/>
  <unicode hex="0073"/>
  <outline>
    <contour>
      <point x="22.92307692307693" y="319.96923076923076" type="line"/>
      <point x="473.06615384615395" y="314.12307692307695" type="line"/>
      <point x="473.06615384615395" y="299.8153846153847" type="line" smooth="yes"/>
      <point x="473.06615384615395" y="257.3692307692308"/>
      <point x="580.1853846153845" y="225.7307692307692"/>
      <point x="665.8353846153847" y="225.7307692307692" type="qcurve" smooth="yes"/>
      <point x="757.0419208537128" y="225.7307692307692"/>
      <point x="844.0769230769232" y="255.23076923076917"/>
      <point x="844.0769230769232" y="279.7307692307693" type="qcurve" smooth="yes"/>
      <point x="844.0769230769232" y="305.0"/>
      <point x="769.1538461538461" y="330.2307692307692"/>
      <point x="539.4615384615386" y="355.7307692307692" type="qcurve" smooth="yes"/>
      <point x="258.2692307692308" y="388.8461538461538"/>
      <point x="60.923076923076906" y="540.662091152815"/>
      <point x="60.923076923076906" y="671.7907692307692" type="qcurve" smooth="yes"/>
      <point x="60.923076923076906" y="809.9969587366276"/>
      <point x="408.51692307692304" y="994.067692307692"/>
      <point x="686.7584615384617" y="994.067692307692" type="qcurve" smooth="yes"/>
      <point x="964.0074615384616" y="994.067692307692"/>
      <point x="1302.4015384615386" y="792.5596153846153"/>
      <point x="1302.4015384615386" y="660.1753846153846" type="qcurve" smooth="yes"/>
      <point x="1302.4015384615386" y="641.7138461538461" type="line"/>
      <point x="854.1430769230768" y="641.7138461538461" type="line"/>
      <point x="854.1430769230768" y="653.5215384615385" type="line" smooth="yes"/>
      <point x="854.1430769230768" y="689.7134615384615"/>
      <point x="764.964557329463" y="723.6830769230769"/>
      <point x="673.4892307692309" y="723.6830769230769" type="qcurve" smooth="yes"/>
      <point x="581.6255944055944" y="723.6830769230769"/>
      <point x="510.91230769230765" y="701.3600000000001"/>
      <point x="510.2584615384615" y="676.0215384615383" type="qcurve" smooth="yes"/>
      <point x="509.60461538461544" y="652.1791632928474"/>
      <point x="584.0979148725753" y="629.2557728952349"/>
      <point x="812.7307692307693" y="608.5146153846154" type="qcurve" smooth="yes"/>
      <point x="1087.5231722473436" y="582.6118780232493"/>
      <point x="1327.113076923077" y="437.45218080888185"/>
      <point x="1327.113076923077" y="300.7769230769231" type="qcurve" smooth="yes"/>
      <point x="1327.113076923077" y="158.56201923076924"/>
      <point x="1001.8300000000002" y="-28.576923076923077"/>
      <point x="678.22" y="-28.576923076923077" type="qcurve" smooth="yes"/>
      <point x="354.143076923077" y="-28.576923076923077"/>
      <point x="30.5" y="161.27730769230774"/>
      <point x="23.65384615384616" y="305.35384615384623" type="qcurve" smooth="yes"/>
    </contour>
  </outline>
</glyph>
<glyph name="t" format="2">
  <advance width="967"/>
  <unicode hex="0074"/>
  <outline>
    <contour>
      <point x="1.4615384615384612" y="610.452307692308" type="line"/>
      <point x="1.4615384615384612" y="958.3369230769232" type="line"/>
      <point x="934.8738461538462" y="958.3369230769232" type="line"/>
      <point x="934.8738461538462" y="610.452307692308" type="line"/>
    </contour>
    <contour>
      <point x="183.6923076923077" y="326.2307692307692" type="qcurve" smooth="yes"/>
      <point x="183.6923076923077" y="894.7023076923075" type="line"/>
      <point x="198.30769230769232" y="910.8176923076924" type="line"/>
      <point x="198.30769230769232" y="1209.6923076923076" type="line"/>
      <point x="686.4507692307693" y="1209.6923076923076" type="line"/>
      <point x="686.4507692307693" y="457.8461538461538" type="line" smooth="yes"/>
      <point x="686.4507692307693" y="372.5"/>
      <point x="741.7999595141702" y="317.3076923076923"/>
      <point x="804.2392307692307" y="317.3076923076923" type="qcurve" smooth="yes"/>
      <point x="841.9453086419753" y="317.3076923076923"/>
      <point x="900.7969230769229" y="325.17307692307685"/>
      <point x="929.3353846153847" y="332.7692307692308" type="qcurve"/>
      <point x="931.1046153846155" y="11.538461538461537" type="line"/>
      <point x="892.3546153846153" y="0.615384615384615"/>
      <point x="727.9315384615385" y="-22.692307692307693"/>
      <point x="595.4892307692307" y="-22.692307692307693" type="qcurve" smooth="yes"/>
      <point x="396.8315384615385" y="-22.692307692307693"/>
      <point x="183.6923076923077" y="152.03846153846155"/>
    </contour>
  </outline>
</glyph>
<glyph name="u" format="2">
  <advance width="1455"/>
  <unicode hex="0075"/>
  <anchor x="646.3869230769232" y="958.3369230769232" name="top"/>
  <outline>
    <contour>
      <point x="50.538461538461554" y="390.3461538461539" type="qcurve" smooth="yes"/>
      <point x="50.538461538461554" y="958.3369230769232" type="line"/>
      <point x="563.5276923076923" y="958.3369230769232" type="line"/>
      <point x="563.5276923076923" y="471.2692307692308" type="line" smooth="yes"/>
      <point x="563.5276923076923" y="394.6923076923077"/>
      <point x="638.1623076923076" y="324.96153846153845"/>
      <point x="705.5853846153846" y="324.96153846153845" type="qcurve" smooth="yes"/>
      <point x="767.22" y="324.96153846153845"/>
      <point x="854.7007692307693" y="386.13461538461536"/>
      <point x="882.796923076923" y="433.1923076923077" type="qcurve"/>
      <point x="882.796923076923" y="958.3369230769232" type="line"/>
      <point x="1396.6323076923074" y="958.3369230769232" type="line"/>
      <point x="1396.6323076923074" y="0.0" type="line"/>
      <point x="888.4123076923076" y="0.0" type="line"/>
      <point x="884.9123076923076" y="150.46153846153845" type="line"/>
      <point x="885.3930769230769" y="150.46153846153845" type="line"/>
      <point x="834.8338461538463" y="68.74999999999999"/>
      <point x="632.0261538461539" y="-27.576923076923077"/>
      <point x="477.9623076923076" y="-27.576923076923077" type="qcurve" smooth="yes"/>
      <point x="285.75615384615384" y="-27.576923076923077"/>
      <point x="50.538461538461554" y="169.80769230769226"/>
    </contour>
  </outline>
</glyph>
<glyph name="v" format="2">
  <advance width="1381"/>
  <unicode hex="0076"/>
  <outline>
    <contour>
      <point x="-8.846153846153847" y="958.3369230769232" type="line"/>
      <point x="496.70769230769235" y="958.3369230769232" type="line"/>
      <point x="674.1053846153847" y="546.5538461538462" type="line" smooth="yes"/>
      <point x="682.2053846153844" y="528.338076923077"/>
      <point x="702.2592307692307" y="488.0153846153846"/>
      <point x="710.4130769230769" y="468.28461538461534" type="qcurve"/>
      <point x="711.643846153846" y="468.28461538461534" type="line"/>
      <point x="720.7207692307694" y="488.0153846153846"/>
      <point x="739.6523076923077" y="528.338076923077"/>
      <point x="747.0284615384616" y="546.5538461538462" type="qcurve" smooth="yes"/>
      <point x="933.3107692307691" y="958.3369230769232" type="line"/>
      <point x="1390.0538461538463" y="958.3369230769232" type="line"/>
      <point x="949.246153846154" y="0.0" type="line"/>
      <point x="439.2692307692308" y="0.0" type="line"/>
    </contour>
  </outline>
</glyph>
<glyph name="w" format="2">
  <advance width="2155"/>
  <unicode hex="0077"/>
  <outline>
    <contour>
      <point x="-0.5769230769230766" y="958.3369230769232" type="line"/>
      <point x="493.25384615384627" y="958.3369230769232" type="line"/>
      <point x="638.4638461538461" y="556.9038461538461" type="line" smooth="yes"/>
      <point x="649.651923076923" y="525.25"/>
      <point x="662.8292307692308" y="483.7884615384615"/>
      <point x="672.5407692307693" y="452.28846153846155" type="qcurve"/>
      <point x="676.4253846153846" y="452.28846153846155" type="line"/>
      <point x="688.0984615384615" y="483.78846153846155"/>
      <point x="701.6796153846153" y="525.25"/>
      <point x="711.9638461538461" y="556.9038461538461" type="qcurve" smooth="yes"/>
      <point x="868.286153846154" y="958.3369230769232" type="line"/>
      <point x="1337.0046153846154" y="958.3369230769232" type="line"/>
      <point x="1493.4946153846154" y="551.019230769231" type="line" smooth="yes"/>
      <point x="1504.901153846154" y="520.6730769230769"/>
      <point x="1518.936923076923" y="480.5192307692308"/>
      <point x="1528.6484615384613" y="450.3269230769231" type="qcurve"/>
      <point x="1534.4946153846151" y="450.3269230769231" type="line"/>
      <point x="1543.5523076923077" y="480.5192307692308"/>
      <point x="1556.075769230769" y="520.6730769230769"/>
      <point x="1566.6100000000001" y="551.019230769231" type="qcurve" smooth="yes"/>
      <point x="1708.6138461538465" y="958.3369230769232" type="line"/>
      <point x="2156.076923076923" y="958.3369230769232" type="line"/>
      <point x="1812.5384615384614" y="0.0" type="line"/>
      <point x="1281.0869230769229" y="0.0" type="line"/>
      <point x="1114.23" y="390.26384615384615" type="line" smooth="yes"/>
      <point x="1104.407307692308" y="413.8407692307693"/>
      <point x="1090.153076923077" y="455.22538461538477"/>
      <point x="1080.499230769231" y="478.6484615384615" type="qcurve"/>
      <point x="1076.8069230769229" y="478.6484615384615" type="line"/>
      <point x="1067.806923076923" y="455.22538461538477"/>
      <point x="1054.3288461538461" y="413.8407692307691"/>
      <point x="1044.383846153846" y="390.26384615384615" type="qcurve" smooth="yes"/>
      <point x="884.5269230769229" y="0.0" type="line"/>
      <point x="340.7692307692307" y="0.0" type="line"/>
    </contour>
  </outline>
</glyph>
<glyph name="x" format="2">
  <advance width="1339"/>
  <unicode hex="0078"/>
  <outline>
    <contour>
      <point x="-7.076923076923077" y="0.0" type="line"/>
      <point x="438.8846153846154" y="585.4376923076923" type="line"/>
      <point x="588.5807692307691" y="585.4376923076923" type="line"/>
      <point x="873.8692307692306" y="958.3369230769232" type="line"/>
      <point x="1331.2115384615386" y="958.3369230769232" type="line"/>
      <point x="897.8461538461537" y="379.9376923076924" type="line"/>
      <point x="721.9961538461538" y="379.78384615384624" type="line"/>
      <point x="450.26538461538456" y="0.0" type="line"/>
    </contour>
    <contour>
      <point x="8.63461538461539" y="958.3369230769232" type="line"/>
      <point x="568.0961538461538" y="958.3369230769232" type="line"/>
      <point x="850.8846153846154" y="565.5530769230768" type="line"/>
      <point x="906.3461538461538" y="565.5530769230769" type="line"/>
      <point x="1346.1923076923076" y="0.0" type="line"/>
      <point x="785.8076923076923" y="0.0" type="line"/>
      <point x="490.42307692307685" y="410.01461538461535" type="line"/>
      <point x="438.6923076923078" y="410.01461538461547" type="line"/>
    </contour>
  </outline>
</glyph>
<glyph name="y" format="2">
  <advance width="1379"/>
  <unicode hex="0079"/>
  <anchor x="635.219230769231" y="958.3369230769232" name="top"/>
  <outline>
    <contour>
      <point x="-12.046153846153842" y="-406.2307692307692" type="qcurve"/>
      <point x="32.53076923076923" y="-96.57692307692308" type="line"/>
      <point x="77.67923076923076" y="-103.51923076923076"/>
      <point x="167.27846153846153" y="-111.23076923076923"/>
      <point x="211.63846153846154" y="-111.23076923076923" type="qcurve" smooth="yes"/>
      <point x="316.4469230769231" y="-111.23076923076923"/>
      <point x="422.5" y="-89.11538461538461"/>
      <point x="469.1153846153846" y="8.384615384615383" type="qcurve" smooth="yes"/>
      <point x="447.50000000000006" y="4.576923076923077" type="line"/>
      <point x="-6.15384615384615" y="958.3369230769232" type="line"/>
      <point x="497.9" y="958.3369230769232" type="line"/>
      <point x="669.6546153846153" y="551.4000000000001" type="line" smooth="yes"/>
      <point x="679.6626923076924" y="528.338076923077"/>
      <point x="700.8853846153846" y="489.2076923076923"/>
      <point x="711.0776923076925" y="465.9769230769231" type="qcurve"/>
      <point x="711.8853846153846" y="465.9769230769231" type="line"/>
      <point x="723.7315384615384" y="489.20769230769235"/>
      <point x="743.4665384615384" y="528.4919230769231"/>
      <point x="753.2700000000001" y="552.1307692307691" type="qcurve" smooth="yes"/>
      <point x="941.7584615384615" y="959.1061538461539" type="line"/>
      <point x="1397.5615384615385" y="958.3369230769232" type="line"/>
      <point x="957.8115384615384" y="32.46153846153845" type="line" smooth="yes"/>
      <point x="836.9446153846153" y="-240.4038461538461"/>
      <point x="541.0730769230769" y="-436.0"/>
      <point x="318.20769230769235" y="-436.0" type="qcurve" smooth="yes"/>
      <point x="195.24307692307693" y="-436.0"/>
      <point x="41.712307692307704" y="-419.3076923076923"/>
    </contour>
  </outline>
</glyph>
<glyph name="z" format="2">
  <advance width="1261"/>
  <unicode hex="007A"/>
  <outline>
    <contour>
      <point x="32.11538461538462" y="0.0" type="line"/>
      <point x="32.11538461538462" y="264.84615384615387" type="line"/>
      <point x="515.0769230769231" y="612.7692307692308" type="line"/>
      <point x="49.730769230769226" y="612.683076923077" type="line"/>
      <point x="49.730769230769226" y="958.3369230769232" type="line"/>
      <point x="1190.146923076923" y="958.3369230769232" type="line"/>
      <point x="1190.146923076923" y="679.2792307692309" type="line"/>
      <point x="707.8461538461538" y="331.03846153846155" type="line"/>
      <point x="1230.4546153846154" y="331.03846153846155" type="line"/>
      <point x="1230.4546153846154" y="0.0" type="line"/>
    </contour>
  </outline>
</glyph>
<glyph name="braceleft" format="2">
  <advance width="891"/>
  <unicode hex="007B"/>
  <outline>
    <contour>
      <point x="900.6907692307692" y="-312.0" type="line"/>
      <point x="414.3976923076923" y="-327.3846153846154"/>
      <point x="122.93000000000002" y="-88.26923076923077"/>
      <point x="182.01538461538462" y="121.46153846153845" type="qcurve" smooth="yes"/>
      <point x="228.86923076923077" y="290.2307692307692" type="line" smooth="yes"/>
      <point x="247.06153846153845" y="356.1730769230769"/>
      <point x="132.71615384615384" y="392.6153846153846"/>
      <point x="26.826923076923073" y="392.6153846153846" type="qcurve"/>
      <point x="26.826923076923073" y="755.3846153846155" type="line"/>
      <point x="132.71615384615384" y="755.3846153846155"/>
      <point x="247.06153846153845" y="791.8269230769231"/>
      <point x="228.86923076923077" y="857.7692307692307" type="qcurve" smooth="yes"/>
      <point x="182.01538461538462" y="1026.5384615384617" type="line" smooth="yes"/>
      <point x="124.39153846153846" y="1229.6923076923076"/>
      <point x="414.3976923076923" y="1468.2307692307693"/>
      <point x="900.6907692307692" y="1460.0" type="qcurve"/>
      <point x="900.6907692307692" y="1117.8846153846157" type="line"/>
      <point x="736.8092307692307" y="1117.8846153846157"/>
      <point x="615.6476923076923" y="1053.5000000000002"/>
      <point x="641.9138461538462" y="968.1538461538463" type="qcurve" smooth="yes"/>
      <point x="689.6907692307693" y="814.0" type="line" smooth="yes"/>
      <point x="714.7100000000002" y="730.6538461538462"/>
      <point x="636.536923076923" y="600.3846153846154"/>
      <point x="539.2484615384616" y="574.0" type="qcurve"/>
      <point x="636.536923076923" y="547.6153846153846"/>
      <point x="713.786923076923" y="418.2692307692308"/>
      <point x="689.6907692307693" y="334.0" type="qcurve" smooth="yes"/>
      <point x="641.9138461538462" y="179.84615384615387" type="line" smooth="yes"/>
      <point x="615.6476923076923" y="94.49999999999999"/>
      <point x="736.8092307692307" y="30.1153846153846"/>
      <point x="900.6907692307692" y="30.1153846153846" type="qcurve"/>
    </contour>
  </outline>
</glyph>
<glyph name="bar" format="2">
  <advance width="753"/>
  <unicode hex="007C"/>
  <outline>
    <contour>
      <point x="122.3076923076923" y="-416.0" type="line"/>
      <point x="122.3076923076923" y="1382.1538461538462" type="line"/>
      <point x="630.5169230769229" y="1382.1538461538462" type="line"/>
      <point x="630.5169230769229" y="-416.0" type="line"/>
    </contour>
  </outline>
</glyph>
<glyph name="braceright" format="2">
  <advance width="891"/>
  <unicode hex="007D"/>
  <outline>
    <contour>
      <point x="-10.03846153846153" y="-313.46153846153845" type="qcurve"/>
      <point x="-10.03846153846153" y="28.653846153846146" type="line"/>
      <point x="153.92" y="28.653846153846146"/>
      <point x="275.8507692307693" y="93.03846153846152"/>
      <point x="248.66153846153853" y="178.38461538461544" type="qcurve" smooth="yes"/>
      <point x="201.80769230769232" y="332.53846153846155" type="line" smooth="yes"/>
      <point x="177.71153846153842" y="416.8076923076923"/>
      <point x="254.03846153846152" y="546.1538461538462"/>
      <point x="352.24999999999994" y="572.5384615384617" type="qcurve"/>
      <point x="254.03846153846152" y="598.9230769230769"/>
      <point x="177.63461538461536" y="728.2692307692307"/>
      <point x="201.80769230769232" y="812.5384615384617" type="qcurve" smooth="yes"/>
      <point x="248.66153846153853" y="966.6923076923077" type="line" smooth="yes"/>
      <point x="275.8507692307693" y="1052.0384615384617"/>
      <point x="153.92" y="1116.4230769230771"/>
      <point x="-10.03846153846153" y="1116.4230769230771" type="qcurve"/>
      <point x="-10.03846153846153" y="1458.5384615384614" type="line"/>
      <point x="476.10076923076923" y="1474.0769230769229"/>
      <point x="768.7223076923076" y="1234.8076923076924"/>
      <point x="709.4061538461538" y="1025.076923076923" type="qcurve" smooth="yes"/>
      <point x="661.7061538461539" y="856.3076923076923" type="line" smooth="yes"/>
      <point x="643.5138461538461" y="790.3653846153846"/>
      <point x="757.9361538461538" y="753.9230769230769"/>
      <point x="864.7484615384615" y="753.9230769230769" type="qcurve"/>
      <point x="864.7484615384615" y="391.0769230769231" type="line"/>
      <point x="757.9361538461538" y="391.0769230769231"/>
      <point x="643.5138461538462" y="354.6346153846154"/>
      <point x="661.7061538461539" y="288.7692307692308" type="qcurve" smooth="yes"/>
      <point x="709.4061538461538" y="120.0" type="line" smooth="yes"/>
      <point x="767.2607692307691" y="-83.15384615384615"/>
      <point x="476.10076923076923" y="-321.53846153846155"/>
    </contour>
  </outline>
</glyph>
<glyph name="asciitilde" format="2">
  <advance width="1480"/>
  <unicode hex="007E"/>
  <outline>
    <contour>
      <point x="145.0384615384616" y="324.92307692307685" type="qcurve"/>
      <point x="145.0384615384616" y="809.3461538461539" type="line"/>
      <point x="196.53846153846158" y="880.3076923076925"/>
      <point x="347.49999999999994" y="948.7692307692307"/>
      <point x="438.3076923076923" y="949.0384615384615" type="qcurve" smooth="yes"/>
      <point x="481.07692307692315" y="949.3076923076925"/>
      <point x="672.8076923076925" y="906.423076923077"/>
      <point x="765.0000000000001" y="874.1923076923076" type="qcurve" smooth="yes"/>
      <point x="855.4615384615385" y="844.2692307692307"/>
      <point x="1031.846153846154" y="799.7307692307693"/>
      <point x="1069.6538461538462" y="799.7307692307693" type="qcurve" smooth="yes"/>
      <point x="1144.1153846153848" y="799.7307692307693"/>
      <point x="1275.5384615384614" y="866.6923076923078"/>
      <point x="1336.4615384615383" y="935.8846153846154" type="qcurve"/>
      <point x="1336.4615384615383" y="414.3076923076924" type="line"/>
      <point x="1293.8076923076924" y="369.00000000000006"/>
      <point x="1163.4615384615383" y="311.2307692307692"/>
      <point x="1072.1153846153845" y="311.2307692307692" type="qcurve" smooth="yes"/>
      <point x="1025.3846153846155" y="311.2307692307692"/>
      <point x="818.576923076923" y="355.5"/>
      <point x="708.9615384615387" y="389.0384615384615" type="qcurve" smooth="yes"/>
      <point x="623.8846153846155" y="416.3461538461539"/>
      <point x="452.4230769230768" y="452.0000000000001"/>
      <point x="421.5769230769232" y="452.0000000000001" type="qcurve" smooth="yes"/>
      <point x="323.96153846153845" y="452.0000000000001"/>
      <point x="190.6923076923077" y="378.03846153846166"/>
    </contour>
  </outline>
</glyph>
<glyph name="threesuperior" format="2">
  <advance width="751"/>
  <unicode hex="00B3"/>
  <outline>
    <contour>
      <point x="36.84615384615384" y="954.0000000000001" type="qcurve"/>
      <point x="298.46153846153845" y="954.0000000000001" type="line"/>
      <point x="298.46153846153845" y="915.5384615384617"/>
      <point x="342.49999999999994" y="882.1923076923074"/>
      <point x="372.53846153846155" y="882.1923076923074" type="qcurve" smooth="yes"/>
      <point x="408.8461538461538" y="882.1923076923074"/>
      <point x="439.49999999999994" y="917.1923076923076"/>
      <point x="439.49999999999994" y="945.9230769230769" type="qcurve" smooth="yes"/>
      <point x="439.49999999999994" y="979.9615384615385"/>
      <point x="390.96153846153845" y="1014.9230769230771"/>
      <point x="330.38461538461536" y="1015.2692307692308" type="qcurve" smooth="yes"/>
      <point x="239.84615384615384" y="1015.2692307692308" type="line"/>
      <point x="239.84615384615384" y="1164.0769230769229" type="line"/>
      <point x="317.30769230769226" y="1164.0769230769229" type="line" smooth="yes"/>
      <point x="374.92307692307696" y="1164.0769230769229"/>
      <point x="421.2692307692308" y="1201.7692307692307"/>
      <point x="421.2692307692308" y="1238.0" type="qcurve" smooth="yes"/>
      <point x="421.2692307692308" y="1264.346153846154"/>
      <point x="395.38461538461536" y="1290.1538461538462"/>
      <point x="361.6923076923077" y="1290.1538461538462" type="qcurve" smooth="yes"/>
      <point x="333.46153846153845" y="1290.1538461538462"/>
      <point x="297.6923076923077" y="1261.0769230769233"/>
      <point x="297.6923076923077" y="1224.6153846153845" type="qcurve"/>
      <point x="55.03846153846154" y="1224.6153846153845" type="line"/>
      <point x="55.03846153846154" y="1360.2692307692307"/>
      <point x="249.50000000000003" y="1487.0"/>
      <point x="379.6153846153846" y="1487.0" type="qcurve" smooth="yes"/>
      <point x="521.3846153846155" y="1487.0"/>
      <point x="695.2307692307693" y="1378.5384615384614"/>
      <point x="695.2307692307693" y="1269.5384615384617" type="qcurve" smooth="yes"/>
      <point x="695.2307692307693" y="1212.0"/>
      <point x="619.1538461538462" y="1120.0"/>
      <point x="559.1538461538462" y="1098.0" type="qcurve"/>
      <point x="634.3461538461538" y="1077.6153846153845"/>
      <point x="712.7692307692307" y="989.5384615384614"/>
      <point x="712.7692307692307" y="923.5384615384614" type="qcurve" smooth="yes"/>
      <point x="712.7692307692307" y="813.5384615384614"/>
      <point x="538.0769230769232" y="686.0"/>
      <point x="387.15384615384613" y="686.0" type="qcurve" smooth="yes"/>
      <point x="260.5769230769231" y="686.0"/>
      <point x="36.84615384615384" y="803.4615384615385"/>
    </contour>
  </outline>
</glyph>
<glyph name="hungarumlaut" format="2">
  <advance width="1024"/>
  <unicode hex="02DD"/>
  <outline>
    <contour>
      <point x="598.2692307692308" y="1184.192307692308" type="line"/>
      <point x="825.3076923076923" y="1489.6153846153848" type="line"/>
      <point x="1042.8076923076924" y="1502.8076923076922" type="line"/>
      <point x="783.1538461538463" y="1192.2692307692305" type="line"/>
    </contour>
    <contour>
      <point x="159.4230769230769" y="1184.192307692308" type="line"/>
      <point x="310.3076923076922" y="1489.6153846153848" type="line"/>
      <point x="516.3846153846155" y="1502.8076923076922" type="line"/>
      <point x="320.1923076923077" y="1192.2692307692305" type="line"/>
    </contour>
  </outline>
</glyph>
<glyph name="second" format="2">
  <advance width="1054"/>
  <unicode hex="2033"/>
  <outline>
    <contour>
      <point x="100.0" y="964.0" type="line"/>
      <point x="395.0" y="1559.0" type="line"/>
      <point x="588.0" y="1452.0" type="line"/>
      <point x="231.0" y="884.0" type="line"/>
    </contour>
    <contour>
      <point x="499.07692307692304" y="964.0" type="line"/>
      <point x="794.0769230769231" y="1559.0" type="line"/>
      <point x="987.0769230769231" y="1452.0" type="line"/>
      <point x="630.0769230769231" y="884.0" type="line"/>
    </contour>
  </outline>
</glyph>
<glyph name="fraction" format="2">
  <advance width="342"/>
  <unicode hex="2044"/>
  <guideline x="0" y="901.0" angle="0" identifier="tcCoNUQTdD"/>
  <guideline x="0" y="555.0" angle="0" identifier="0lx51aIE0d"/>
  <outline>
    <contour>
      <point x="749.846153846154" y="1330.1153846153845" type="line"/>
      <point x="-103.5769230769231" y="-20.884615384615387" type="line"/>
      <point x="-408.9230769230769" y="142.8076923076923" type="line"/>
      <point x="441.6153846153846" y="1494.0" type="line"/>
    </contour>
  </outline>
</glyph>
<glyph name="foursuperior" format="2">
  <advance width="814"/>
  <unicode hex="2074"/>
  <outline>
    <contour>
      <point x="28.307692307692314" y="847.3076923076923" type="line"/>
      <point x="21.307692307692314" y="1014.6923076923076" type="line"/>
      <point x="399.3076923076923" y="1496.0" type="line"/>
      <point x="614.8461538461538" y="1496.0" type="line"/>
      <point x="451.30769230769226" y="1270.0" type="line"/>
      <point x="278.0384615384616" y="1038.7692307692307" type="line"/>
      <point x="784.9999999999999" y="1042.6923076923076" type="line"/>
      <point x="784.9999999999999" y="847.3076923076923" type="line"/>
    </contour>
    <contour>
      <point x="676.9999999999999" y="1496.0" type="line"/>
      <point x="676.9999999999999" y="697.0" type="line"/>
      <point x="421.92307692307696" y="697.0" type="line"/>
      <point x="421.92307692307696" y="1496.0" type="line"/>
    </contour>
  </outline>
</glyph>
<glyph name="bulletoperator" format="2">
  <advance width="1024"/>
  <unicode hex="2219"/>
  <outline>
    <contour>
      <point x="368.0" y="674.0" type="qcurve" smooth="yes"/>
      <point x="368.0" y="732.0"/>
      <point x="449.0" y="818.0"/>
      <point x="512.0" y="818.0" type="qcurve" smooth="yes"/>
      <point x="575.0" y="818.0"/>
      <point x="656.0" y="732.0"/>
      <point x="656.0" y="674.0" type="qcurve" smooth="yes"/>
      <point x="656.0" y="617.0"/>
      <point x="575.0" y="531.0"/>
      <point x="512.0" y="531.0" type="qcurve" smooth="yes"/>
      <point x="449.0" y="531.0"/>
      <point x="368.0" y="617.0"/>
    </contour>
  </outline>
</glyph>
<glyph name="acutecomb.case" format="2">
  <advance width="1024"/>
  <outline>
    <contour>
      <point x="392.4615384615385" y="1621.8846153846152" type="line"/>
      <point x="624.7692307692308" y="2002.9615384615379" type="line"/>
      <point x="814.1153846153845" y="1939.269230769231" type="line"/>
      <point x="515.0" y="1567.1538461538457" type="line"/>
    </contour>
  </outline>
</glyph>
<glyph name="cedillacomb.case" format="2">
  <advance width="1024"/>
  <outline>
    <contour>
      <point x="430.0" y="31.999999999999996" type="line"/>
      <point x="569.0" y="31.999999999999996" type="line"/>
      <point x="541.0" y="-93.0" type="line"/>
      <point x="620.0" y="-107.0"/>
      <point x="744.0" y="-199.0"/>
      <point x="744.0" y="-276.0" type="qcurve" smooth="yes"/>
      <point x="744.0" y="-379.0"/>
      <point x="520.0" y="-505.0"/>
      <point x="318.0" y="-505.0" type="qcurve"/>
      <point x="311.0" y="-369.0" type="line"/>
      <point x="419.0" y="-370.0"/>
      <point x="542.0" y="-331.0"/>
      <point x="542.0" y="-278.0" type="qcurve" smooth="yes"/>
      <point x="542.0" y="-229.0"/>
      <point x="473.0" y="-192.0"/>
      <point x="389.0" y="-185.0" type="qcurve"/>
    </contour>
  </outline>
</glyph>
<glyph name="dollar.rvrn" format="2">
  <advance width="1444"/>
  <outline>
    <contour>
      <point x="28.65384615384614" y="429.46153846153845" type="qcurve" smooth="yes"/>
      <point x="28.65384615384614" y="504.49999999999994" type="line"/>
      <point x="514.0" y="504.49999999999994" type="line"/>
      <point x="514.0" y="474.7692307692308" type="line" smooth="yes"/>
      <point x="513.2692307692308" y="404.8076923076923"/>
      <point x="627.6538461538461" y="329.5769230769231"/>
      <point x="730.8076923076924" y="329.5769230769231" type="qcurve" smooth="yes"/>
      <point x="826.0769230769231" y="329.5769230769231"/>
      <point x="931.8076923076926" y="391.34615384615375"/>
      <point x="931.8076923076926" y="438.57692307692304" type="qcurve" smooth="yes"/>
      <point x="931.8076923076926" y="497.2307692307691"/>
      <point x="858.4230769230768" y="488.49999999999994"/>
      <point x="595.8461538461539" y="552.8461538461538" type="qcurve" smooth="yes"/>
      <point x="306.8461538461538" y="627.5384615384617"/>
      <point x="46.346153846153854" y="789.8846153846154"/>
      <point x="46.346153846153854" y="992.4999999999999" type="qcurve" smooth="yes"/>
      <point x="46.346153846153854" y="1207.730769230769"/>
      <point x="408.2307692307693" y="1467.3076923076924"/>
      <point x="715.0" y="1467.3076923076924" type="qcurve" smooth="yes"/>
      <point x="1017.3461538461539" y="1467.3076923076924"/>
      <point x="1392.615384615385" y="1234.3076923076922"/>
      <point x="1392.615384615385" y="1044.4615384615386" type="qcurve" smooth="yes"/>
      <point x="1392.615384615385" y="981.846153846154" type="line"/>
      <point x="913.7307692307693" y="981.846153846154" type="line"/>
      <point x="913.7307692307693" y="1002.8076923076924" type="line" smooth="yes"/>
      <point x="913.7307692307693" y="1053.192307692308"/>
      <point x="816.1923076923076" y="1119.3461538461536"/>
      <point x="725.2307692307692" y="1119.3461538461536" type="qcurve" smooth="yes"/>
      <point x="631.2307692307692" y="1119.3461538461536"/>
      <point x="543.769230769231" y="1067.076923076923"/>
      <point x="543.769230769231" y="1028.6923076923078" type="qcurve" smooth="yes"/>
      <point x="543.769230769231" y="988.1923076923076"/>
      <point x="637.4615384615383" y="990.6153846153845"/>
      <point x="901.1538461538461" y="935.1923076923076" type="qcurve" smooth="yes"/>
      <point x="1162.8076923076926" y="879.3076923076923"/>
      <point x="1429.423076923077" y="706.2307692307693"/>
      <point x="1429.423076923077" y="510.88461538461536" type="qcurve" smooth="yes"/>
      <point x="1429.423076923077" y="262.57692307692304"/>
      <point x="1049.1153846153848" y="-9.076923076923077"/>
      <point x="738.1153846153846" y="-9.076923076923077" type="qcurve" smooth="yes"/>
      <point x="428.8846153846155" y="-9.076923076923077"/>
      <point x="28.65384615384614" y="223.92307692307696"/>
    </contour>
    <contour>
      <point x="526.0769230769231" y="-132.26923076923077" type="line"/>
      <point x="526.0769230769231" y="108.0" type="line"/>
      <point x="937.4230769230769" y="108.0" type="line"/>
      <point x="937.4230769230769" y="117.73076923076923" type="line"/>
      <point x="946.0769230769231" y="107.73076923076924" type="line"/>
      <point x="946.0769230769231" y="-132.26923076923077" type="line"/>
    </contour>
    <contour>
      <point x="529.3846153846154" y="1292.6153846153848" type="line"/>
      <point x="529.3846153846154" y="1328.3076923076924" type="line"/>
      <point x="520.6538461538462" y="1338.3076923076924" type="line"/>
      <point x="520.6538461538462" y="1624.4615384615386" type="line"/>
      <point x="940.6538461538461" y="1624.4615384615386" type="line"/>
      <point x="940.6538461538461" y="1292.6153846153848" type="line"/>
    </contour>
  </outline>
</glyph>
<glyph name="gravecomb.case" format="2">
  <advance width="1024"/>
  <outline>
    <contour>
      <point x="472.0769230769231" y="1583.5384615384614" type="line"/>
      <point x="176.9615384615385" y="1938.8846153846155" type="line"/>
      <point x="364.53846153846155" y="2015.4615384615386" type="line"/>
      <point x="606.8846153846152" y="1637.4615384615383" type="line"/>
    </contour>
  </outline>
</glyph>
<glyph name="horncomb.case" format="2">
  <advance width="1024"/>
  <outline>
    <contour>
      <point x="382.0" y="1516.7692307692307" type="line"/>
      <point x="455.0" y="1516.7692307692307" type="line" smooth="yes"/>
      <point x="518.0" y="1516.7692307692307"/>
      <point x="593.0" y="1547.7692307692307"/>
      <point x="593.0" y="1604.7692307692307" type="qcurve" smooth="yes"/>
      <point x="593.0" y="1645.7692307692307"/>
      <point x="582.0" y="1718.7692307692307"/>
      <point x="573.0" y="1754.7692307692307" type="qcurve"/>
      <point x="731.4615384615385" y="1754.7692307692307" type="line"/>
      <point x="748.4615384615385" y="1723.7692307692307"/>
      <point x="782.4615384615383" y="1613.7692307692307"/>
      <point x="782.4615384615383" y="1554.769230769231" type="qcurve" smooth="yes"/>
      <point x="782.4615384615383" y="1466.7692307692307"/>
      <point x="626.0" y="1368.8461538461538"/>
      <point x="530.0" y="1368.8461538461538" type="qcurve" smooth="yes"/>
      <point x="484.0" y="1368.8461538461538"/>
      <point x="408.0" y="1382.6923076923078"/>
      <point x="382.0" y="1393.5384615384617" type="qcurve"/>
    </contour>
  </outline>
</glyph>
<glyph name="idotless" format="2">
  <advance width="605"/>
  <outline>
    <contour>
      <point x="60.807692307692314" y="0.0" type="line"/>
      <point x="60.807692307692314" y="951.1538461538462" type="line"/>
      <point x="544.230769230769" y="951.1538461538462" type="line"/>
      <point x="544.230769230769" y="0.0" type="line"/>
    </contour>
  </outline>
</glyph>
<glyph name="jdotless" format="2">
  <advance width="637"/>
  <outline>
    <contour>
      <point x="-186.9230769230769" y="-415.4230769230769" type="qcurve"/>
      <point x="-196.4230769230769" y="-80.26923076923077" type="line"/>
      <point x="-175.0" y="-84.7692307692308"/>
      <point x="-102.80769230769229" y="-100.19230769230771"/>
      <point x="-40.153846153846146" y="-100.19230769230771" type="qcurve" smooth="yes"/>
      <point x="35.88461538461541" y="-100.19230769230771"/>
      <point x="95.6538461538462" y="-29.42307692307694"/>
      <point x="95.6538461538462" y="80.96153846153845" type="qcurve" smooth="yes"/>
      <point x="95.6538461538462" y="951.1538461538462" type="line"/>
      <point x="575.4230769230769" y="951.1538461538462" type="line"/>
      <point x="575.4230769230769" y="21.576923076923073" type="line" smooth="yes"/>
      <point x="575.4230769230769" y="-218.76923076923077"/>
      <point x="318.8846153846154" y="-438.9230769230769"/>
      <point x="64.53846153846152" y="-438.9230769230769" type="qcurve" smooth="yes"/>
      <point x="-3.1153846153846096" y="-438.9230769230769"/>
      <point x="-146.23076923076923" y="-423.57692307692304"/>
    </contour>
  </outline>
</glyph>
<glyph name="zerosuperior" format="2">
  <advance width="921"/>
  <outline>
    <contour>
      <point x="22.576923076923073" y="1053.7307692307693" type="qcurve" smooth="yes"/>
      <point x="22.576923076923073" y="1131.4615384615386" type="line" smooth="yes"/>
      <point x="22.576923076923073" y="1296.8846153846155"/>
      <point x="265.1923076923077" y="1489.0"/>
      <point x="461.7692307692307" y="1489.0" type="qcurve" smooth="yes"/>
      <point x="656.5769230769229" y="1489.0"/>
      <point x="897.6153846153844" y="1296.6538461538462"/>
      <point x="897.6153846153844" y="1132.076923076923" type="qcurve" smooth="yes"/>
      <point x="897.6153846153844" y="1055.1153846153848" type="line" smooth="yes"/>
      <point x="897.6153846153844" y="872.5384615384617"/>
      <point x="656.576923076923" y="673.0"/>
      <point x="460.8461538461538" y="673.0" type="qcurve" smooth="yes"/>
      <point x="265.1923076923077" y="673.0"/>
      <point x="22.576923076923073" y="871.0769230769232"/>
    </contour>
    <contour>
      <point x="358.3076923076923" y="999.4615384615383" type="line" smooth="yes"/>
      <point x="358.3076923076923" y="944.7307692307693"/>
      <point x="405.2692307692308" y="903.8461538461538"/>
      <point x="461.7692307692307" y="903.8461538461538" type="qcurve" smooth="yes"/>
      <point x="517.4230769230768" y="903.8461538461538"/>
      <point x="561.8846153846152" y="944.7307692307693"/>
      <point x="561.8846153846152" y="999.4615384615383" type="qcurve" smooth="yes"/>
      <point x="561.8846153846152" y="1155.2307692307688" type="line" smooth="yes"/>
      <point x="561.8846153846152" y="1209.9615384615386"/>
      <point x="518.7692307692307" y="1258.1538461538462"/>
      <point x="460.8461538461538" y="1258.1538461538462" type="qcurve" smooth="yes"/>
      <point x="403.07692307692304" y="1258.1538461538462"/>
      <point x="358.3076923076923" y="1209.9615384615386"/>
      <point x="358.3076923076923" y="1155.2307692307688" type="qcurve" smooth="yes"/>
    </contour>
  </outline>
</glyph>
